<svg xmlns="http://www.w3.org/2000/svg" viewBox="0 0 442 442"><path fill="none" fill-opacity="0" stroke="none" stroke-opacity="0" stroke-width=".3" d="M0 442h442V0H0v442M229 3c37.94-.48 73.28 12.04 105 31 1.33.99 3.57 1.05 4 3 28.5 16.83 54.65 42.14 71 71 1.82.6 2.15 2.56 3 4 25.13 41.3 32.26 92.57 24 141-1.95 11.09-3.99 22.84-8 33-3.12 12.06-7.71 24.37-14 35-71.59 166.73-347.63 149.74-398-25-6.87-19.91-12.04-40.46-13-62-1.66-11.59-1.67-26.48 0-38 2.92-44.62 21.66-86.76 52-120 6.85-8.17 15.46-14.54 23-22 15.17-11.4 30.41-23.32 48-30 2.14-1.83 5.11-3.41 8-4 .47-.11 1 0 1 0 1.49-1.47 3.78-2.74 6-3 1.14-.93 2.55-1.08 4-1 .84-1.11 2.46-2.04 4-2 20.01-7.23 40.99-11.28 63-11 4.59-1.62 12.48-1.7 17 0Z"/><path fill="none" fill-opacity="0" stroke="#EEC0AE" stroke-opacity=".06" stroke-width=".3" d="M212 3h17c-4.52-1.7-12.41-1.62-17 0Z"/><path fill="none" fill-opacity="0" stroke="#B1472F" stroke-opacity=".93" stroke-width=".3" d="M149 14c-.84 1.11-2.46 2.04-4 2-1.45-.08-2.86.07-4 1-1.49 1.47-3.78 2.74-6 3 0 0-.53-.11-1 0-2.14 1.83-5.11 3.41-8 4-17.59 6.68-32.83 18.6-48 30-6.75 8.34-15.31 14.77-23 22-30.34 33.24-49.08 75.38-52 120v17c1.06 1.11 1.84.48 3 0 1.28 8.19-2.59 20.23 2 26v-10c-1.64-6.92-1.68-17.15 0-24 .32-22.36 4.99-43.73 13-64 10.54-35.42 39.14-69.58 71-91 35.18-24.92 76.15-41.02 120-42 5.92-1.63 15.15-1.69 21 0 62.54 3.34 121.1 35.51 160 86 35.36 43.76 46.86 102.94 38 159-1.4 6.64-2.27 13.42-4 20 4.74-5.47 2.87-16.18 9-20 8.26-48.43 1.13-99.7-24-141-1.82-.6-2.15-2.56-3-4-16.35-28.86-42.5-54.17-71-71-1.33-.99-3.57-1.05-4-3-31.72-18.96-67.06-31.48-105-31h-17c-22.01-.28-42.99 3.77-63 11Z"/><path fill="none" fill-opacity="0" stroke="#D48D2E" stroke-width=".3" d="M212 8h21c-5.85-1.69-15.08-1.63-21 0Z"/><path fill="none" fill-opacity="0" stroke="#FAE44D" stroke-width=".3" d="M92 50c-6.18 5.26-12.9 10.35-19 16-4.85 5.66-10.37 11.22-16 16-8.9 11.73-19.03 22.56-25 36 1.29.44 2.21 1.58 2 3-2.63-.35-5.33 4.49-3 6C54.41 82.72 94.84 45.44 141 27c6.73-1.85 12.9-5.42 20-6 39.71-15.28 91.71-13.85 130 4 .49.06 1.5-.02 2 0 40.46 14.56 78.64 43.86 104 80 1.64-3.72-4.67-6.77-4-11-38.9-50.49-97.46-82.66-160-86h-21c-43.85.98-84.82 17.08-120 42Z"/><path fill="none" fill-opacity="0" stroke="#FCF9A4" stroke-width=".3" d="M161 21c41.19-12.12 89.94-11.39 130 4-38.29-17.85-90.29-19.28-130-4Z"/><path fill="none" fill-opacity="0" stroke="#FEFEE2" stroke-width=".3" d="M161 21c-7.1.58-13.27 4.15-20 6-32.94 17.16-69.08 39-89 72 35.94-44.52 87.7-75.51 144-82 29.11-.18 59.17-1.4 85 9 4.04-.3 7 3.09 11 3 37.03 12.09 69.66 39.63 96 67-23.56-32.63-59.89-54.53-95-71-.5-.02-1.51.06-2 0-40.06-15.39-88.81-16.12-130-4Z"/><path fill="none" fill-opacity="0" stroke="#DEB0A9" stroke-opacity=".34" stroke-width=".3" d="M145 16c1.54.04 3.16-.89 4-2-1.54-.04-3.16.89-4 2Z"/><path fill="none" fill-opacity="0" stroke="#E3AEA4" stroke-opacity=".32" stroke-width=".3" d="M135 20c2.22-.26 4.51-1.53 6-3-2.22.26-4.51 1.53-6 3Z"/><path fill="none" fill-opacity="0" stroke="#FEFBA9" stroke-width=".3" d="M141 27C94.84 45.44 54.41 82.72 31 127c-8.38 16.62-14.5 34.34-17 53 .56 2.91-1.53 7.58 2 9 .54-2.12 1.86-4.36 3-6 3.56-19.02 9.43-37.69 18-55 10.68-23.25 28.94-43 48-61 9.02-4.54 16.11-12.94 25-18 25.35-17.84 56.88-24.39 86-32-56.3 6.49-108.06 37.48-144 82 19.92-33 56.06-54.84 89-72Z"/><path fill="none" fill-opacity="0" stroke="#FDF046" stroke-width=".3" d="M110 49c6.99-2.98 12.33-7.61 20-4 .11-6.57 4.32-.77 9-2 1.39 4.08-5.38 2.85-4 7 4.27-4.71 7.42-2.56 12-3-29.46 16.37-68.16 37.66-80 71 11.62-14.63 25.71-31.6 42-43 6.58-5.58 14.76-8.49 21-14 35.52-29.3 105.79-34.86 154-16-2.84-3.48-8.79-2.3-12-6 1.21-5.68-.02-14.83 9-13-25.83-10.4-55.89-9.18-85-9-29.12 7.61-60.65 14.16-86 32Z"/><path fill="none" fill-opacity="0" stroke="#E4ADA4" stroke-opacity=".37" stroke-width=".3" d="M126 24c2.89-.59 5.86-2.17 8-4-2.89.59-5.86 2.17-8 4Z"/><path fill="none" fill-opacity="0" stroke="#FEFAA9" stroke-width=".3" d="M292 29c18.96 9.75 39.74 18.7 56 33 2.09 1.32 3.6 3.29 6 4 26.23 20.22 43.76 48.16 57 77 7.59 12.89 10.35 28.36 14 43 2.86-5.33-.38-12.1 0-18-4.94-22.45-14.24-44.29-28-63-25.36-36.14-63.54-65.44-104-80 35.11 16.47 71.44 38.37 95 71-26.34-27.37-58.97-54.91-96-67Z"/><path fill="none" fill-opacity="0" stroke="#FACF1B" stroke-width=".3" d="M284 45c14.42 4.2 27.13 12.36 40 20-5.31-4.65-11.49-8.93-18-12 1.59-3.81 4.77-1.32 4-7 2.44-.26 4.52-1.76 7-2 4.42 3.76 22.03 10.58 31 18-16.26-14.3-37.04-23.25-56-33-4 .09-6.96-3.3-11-3-9.02-1.83-7.79 7.32-9 13 3.21 3.7 9.16 2.52 12 6Z"/><path fill="none" fill-opacity="0" stroke="#FEF784" stroke-width=".3" d="M130 61c63.09-36.89 148.26-29.84 205 16 1.14.93 2.55 1.08 4 1 .45-2.31-2.53-3.07-3-5-4.31-2.22-7.81-5.61-12-8-12.87-7.64-25.58-15.8-40-20-48.21-18.86-118.48-13.3-154 16Z"/><path fill="none" fill-opacity="0" stroke="#E5B79A" stroke-opacity=".28" stroke-width=".3" d="M338 37c-.43-1.95-2.67-2.01-4-3 .43 1.95 2.67 2.01 4 3Z"/><path fill="none" fill-opacity="0" stroke="#F9A613" stroke-width=".3" d="M130 61c-6.24 5.51-14.42 8.42-21 14-12.88 10.6-18.12 23.91-30 36 61.27-80.31 187.93-91.55 261-23 5.48 4.02 9.56 10.03 15 14-6.77-6.56-7.2-13.81-14-20-2.35-1.02-4.85-2.58-6-5-56.74-45.84-141.91-52.89-205-16Z"/><path fill="none" fill-opacity="0" stroke="#FDCD14" stroke-width=".3" d="M110 49c-8.89 5.06-15.98 13.46-25 18-4.67 5.97-11.15 10.6-15 17 5.16-2.12 15.77-15.24 17-8 5.59.39 5.45-5.4 11-3-.72 4.05-3.79 1.44-6 4-8.2 18.24-35.71 41.06-46 64-2.95-.79-4.48-.65-6 2-8.79-12.04 4.23-24.23 11-35-6.65 5.11-9.25 13.72-14 20-8.57 17.31-14.44 35.98-18 55-.73 19.49-9.71 13.14-5-3 2.5-18.66 8.62-36.38 17-53-2.33-1.51.37-6.35 3-6 .21-1.42-.71-2.56-2-3-3.72 7.77-8.13 14.93-11 23-8.01 20.27-12.68 41.64-13 64v34c2.03 1.77.53 5.48 1 8 2.39.68 1.74 3.39 3 5 1.75-.83.66-3.44 1-5v-8c-2.31-8.76-.35-19.49-1-29 1.73 7.08 1.6 15.48 3 23 .58 11.12 4.62 21.32 7 32 44.72 183.32 328.81 196.79 391 18 7.19-19.31 12.77-39.25 15-60 2.18 7.17.89 16.42 0 24v9c1.27-.56 1.25-2.85 3-3 8.86-56.06-2.64-115.24-38-159-.67 4.23 5.64 7.28 4 11 13.76 18.71 23.06 40.55 28 63 3.47 10.5 5.5 23.47 3 35-8.01-17.41-7.52-41.56-17-60-13.24-28.84-30.77-56.78-57-77 23.95 22.23 47.24 50.48 53 80-5.43-1.2-9.64-15.07-12-4-4.68-3.91-5.14-11.27-10-15 11.68 40.74 25.2 92.93 8 138 3.96-2.53 1.54-10.3 7-11 7.33 11.12 8.61 29.93 2 42-33.17 70.96-110.02 117.77-189 113-71.72-2.18-172.26-51.54-164-136 2.22.49 1.74 3.57 4 4-22.84-53.6-16.14-122.86 23-167 1.68 2.97-3.37 5.55-3 9 2.44-2.11 4.56-5.03 6-8 11.88-12.09 17.12-25.4 30-36-16.29 11.4-30.38 28.37-42 43 11.84-33.34 50.54-54.63 80-71-4.58.44-7.73-1.71-12 3-1.38-4.15 5.39-2.92 4-7-4.68 1.23-8.89-4.57-9 2-7.67-3.61-13.01 1.02-20 4m312 163h-13c1.5-9.32 11.18-9.15 13 0m0 1c-.74 5.7-2.01 15.21-9 16-.8-5.49-4.86-10.05-4-16h13Z"/><path fill="none" fill-opacity="0" stroke="#EF4304" stroke-width=".3" d="M79 111c-1.44 2.97-3.56 5.89-6 8-19.77 30.49-30.36 66.19-28 104 1.26.08.56 2.06 2 2-.02-19.84-.91-40.71 7-58-8.54 29.41-7.58 64.29 2 94 25.4 75.43 103.89 128.33 184.67 117.67C317.76 372.07 381.96 301.96 395 231c.8-2.51 1.28-5.19 1-8v-23c-1.5-33.97-15.06-65.5-36-92-1.2-.67-2.58-1.64-3-3-5.99-5.18-11.89-11.04-17-17-73.07-68.55-199.73-57.31-261 23m280 16c10.03 13.5 15.1 29.59 21 45 52.02 167.34-203.86 276.66-294 130-26.73-30.64-37.12-72.98-28-113 2.35-15.32 7.39-30.11 14-44 3.62-7.79 7.51-15.33 13-22 61.93-93.95 214.72-91.62 274 4Z"/><path fill="none" fill-opacity="0" stroke="#FCBC06" stroke-width=".3" d="M324 65c4.19 2.39 7.69 5.78 12 8 19.1 15.42 36.64 33.23 49 54 4.86 3.73 5.32 11.09 10 15 2.36-11.07 6.57 2.8 12 4-5.76-29.52-29.05-57.77-53-80-2.4-.71-3.91-2.68-6-4-8.97-7.42-26.58-14.24-31-18-2.48.24-4.56 1.74-7 2 .77 5.68-2.41 3.19-4 7 6.51 3.07 12.69 7.35 18 12Z"/><path fill="none" fill-opacity="0" stroke="#AD4A08" stroke-width=".3" d="M21 141c2.87-8.07 7.28-15.23 11-23 5.97-13.44 16.1-24.27 25-36 4.85-5.66 10.37-11.22 16-16 6.1-5.65 12.82-10.74 19-16-31.86 21.42-60.46 55.58-71 91Z"/><path fill="none" fill-opacity="0" stroke="#FB910B" stroke-width=".3" d="M85 123c1.25.3 1.71 1.83 3 2 12.65-11.53 25.79-26.7 41-36 16.37-8.51 31.84-20.44 51-22 14.14-4.87 30.21-6.13 46-6 5.52.85 12.78-1.97 17 2 12.52.67 24.05 5.3 36 8 29.61 9.89 55.15 32.27 75 55 .87-2.2-5.13-2.98-2-5 2.41 1.54 4.42 4.49 7 6-59.28-95.62-212.07-97.95-274-4Z"/><path fill="none" fill-opacity="0" stroke="#D09189" stroke-opacity=".35" stroke-width=".3" d="M55 76c7.69-7.23 16.25-13.66 23-22-7.54 7.46-16.15 13.83-23 22Z"/><path fill="none" fill-opacity="0" stroke="#FDF040" stroke-width=".3" d="M180 67c2.39.68 1.74 3.39 3 5 16.8.28 35.29 1.28 43-10-.45 16.75 26.14 6.48 37.02 13.98C274.61 77.17 287.84 94.52 296 80c-5.58-3.14-12-5.32-17-9-11.95-2.7-23.48-7.33-36-8-5.11-2.47-12.33.62-17-2-15.79-.13-31.86 1.13-46 6Z"/><path fill="none" fill-opacity="0" stroke="#EDB814" stroke-width=".3" d="M243 63c-4.22-3.97-11.48-1.15-17-2 4.67 2.62 11.89-.47 17 2Z"/><path fill="none" fill-opacity="0" stroke="#FDF8A9" stroke-width=".3" d="M180 67c-19.16 1.56-34.63 13.49-51 22-1.98 3.53-6.34 4.14-9 7-.66 1.93-3.39 2.67-3 5 3.45 2.05 5.58 6 9 8 10.47 6.87 15.72 16.18 13 29-16.38.7-24.36-17.41-38-24-1.57.96-3.25 2.32-4 4 5.09 8.8-7.95 25.1 9 25-8.34 7.68-12.81 17.47-13 29-8.15.15-14.88-4.96-23-5 3.01 7.66 15.66 5.81 23 8 1.69 5.48 3.17 13.24 9 12-.93-1.14-1.08-2.55-1-4-13.79-27.28 18.93-46.72 44-39-6.92-33.83 3.59-72.86 45-66 58.46-10.3 131.18 14.54 141 79 .9 6.26 1.87 12.52 2 19 0-.01 1 0 1 0 .82-17.5 28.03 4.89 32.99-10.01-3.58-18.93-18.9-4.95-28.99-.99-3.57-16.58-6.38-33.85-17.3-47.7-3.65-13.52-34.34-21.63-19.7-34.3-1.67-1.11-3.13-2.3-5-3-8.16 14.52-21.39-2.83-32.98-4.02-10.88-7.5-37.47 2.77-37.02-13.98-7.71 11.28-26.2 10.28-43 10-1.26-1.61-.61-4.32-3-5Z"/><path fill="none" fill-opacity="0" stroke="#DA8E29" stroke-width=".3" d="M57 82c5.63-4.78 11.15-10.34 16-16-5.63 4.78-11.15 10.34-16 16Z"/><path fill="none" fill-opacity="0" stroke="#FCE663" stroke-width=".3" d="M37 128c4.75-6.28 7.35-14.89 14-20 4.15-9.05 11.24-17.31 19-24 3.85-6.4 10.33-11.03 15-17-19.06 18-37.32 37.75-48 61Z"/><path fill="none" fill-opacity="0" stroke="#F7B20D" stroke-width=".3" d="M296 80c1.87.7 3.33 1.89 5 3 29.6 16.3 55.71 42.69 68 74 3.21 5.63 5.47 12.49 7 19 2.66-2.03-1-5.24 0-8 2.22.49 1.74 3.57 4 4-5.9-15.41-10.97-31.5-21-45-2.58-1.51-4.59-4.46-7-6-3.13 2.02 2.87 2.8 2 5-19.85-22.73-45.39-45.11-75-55 5 3.68 11.42 5.86 17 9Z"/><path fill="none" fill-opacity="0" stroke="#FCBC03" stroke-width=".3" d="M70 84c-7.76 6.69-14.85 14.95-19 24-6.77 10.77-19.79 22.96-11 35 1.52-2.65 3.05-2.79 6-2 10.29-22.94 37.8-45.76 46-64 2.21-2.56 5.28.05 6-4-5.55-2.4-5.41 3.39-11 3-1.23-7.24-11.84 5.88-17 8Z"/><path fill="none" fill-opacity="0" stroke="#FDE54A" stroke-width=".3" d="M335 77c1.15 2.42 3.65 3.98 6 5 7.02 6.12 14 13.26 20 20-5.22.74.63 3.91-1 6 20.94 26.5 34.5 58.03 36 92 1.64 6.59 1.68 16.48 0 23 .28 2.81-.2 5.49-1 8-7.91 79.76-82.24 147.97-162 151-7.92 1.65-19.15 1.68-27 0-7.03-.51-13.91-1.67-21-2-4.26.61-7.92-.83-12-1 69.89 20.38 147.24-7.89 192-63 .06 1.89-1.42 3.29-2 5 5.34-4.51 7.45-11.98 12-17 2.48-3.11 3.55-6.9 6-10 5-9.33 8.89-19 12-29 17.2-45.07 3.68-97.26-8-138-12.36-20.77-29.9-38.58-49-54 .47 1.93 3.45 2.69 3 5-1.45.08-2.86-.07-4-1Z"/><path fill="none" fill-opacity="0" stroke="#BC3F1A" stroke-width=".3" d="M101 183c1.99-5.89-3.72-12.7 0-19 3.72 2.36 3.29 7.77 5 11 .59-2.84-1.22-6.98 1-9 .11-1-.47-2.73 1-3 4.68-18.56 27.85-10.18 42-12h3c.67-16.5-1.33-34.32 1-50 18.42-27.13 67.05-15.1 97.02-14.02 28.15 4.42 56 24.68 65.98 52.02 2.78 2.8 2.8 7.33 4 11 1.62 4.33 2.08 9.89 2 15v8c2.26-7.61 1.01-17.28-1-25 1.93 2.66 5.98 2.76 5 7 2.28-3.93 1.31 1.45 4 2-9.82-64.46-82.54-89.3-141-79-41.41-6.86-51.92 32.17-45 66-25.07-7.72-57.79 11.72-44 39Z"/><path fill="none" fill-opacity="0" stroke="#FBCA19" stroke-width=".3" d="M355 102c.3 1.25 1.83 1.71 2 3 .42 1.36 1.8 2.33 3 3 1.63-2.09-4.22-5.26 1-6-6-6.74-12.98-13.88-20-20 6.8 6.19 7.23 13.44 14 20Z"/><path fill="none" fill-opacity="0" stroke="#FDEF46" stroke-width=".3" d="M334 176c.56 2.91-1.53 7.58 2 9 2.05-3.67 3.1-7.69 3-12 6.92 9.47 22.58-3.83 33-5-1.19-3.43-2.38-6.86-3-11-12.29-31.31-38.4-57.7-68-74-14.64 12.67 16.05 20.78 19.7 34.3 10.92 13.85 13.73 31.12 17.3 47.7 10.09-3.96 25.41-17.94 28.99.99-4.96 14.9-32.17-7.49-32.99 10.01Z"/><path fill="none" fill-opacity="0" stroke="#F9D857" stroke-width=".3" d="M154 101c-1.41 9.17 2.22 16.39 4 24 .66-8.17-1.33-17.66 1-25 27.37-19.49 73.95-13.7 106-5 25.67 6.82 45.8 32.07 52 57-.3-4.73-.31-8.23 0-13-9.98-27.34-37.83-47.6-65.98-52.02C221.05 85.9 172.42 73.87 154 101Z"/><path fill="none" fill-opacity="0" stroke="#FEFEDA" stroke-width=".3" d="M159 100c.67 10.83-1.33 22.99 1 33-12.25-47.67 40.41-43.01 72.67-41.67 28.69 1.39 59.77 15.92 73.33 42.67-2.36-18.73-25.1-31.32-41-39-32.05-8.7-78.63-14.49-106 5Z"/><path fill="none" fill-opacity="0" stroke="#F07104" stroke-width=".3" d="M357 105c-.17-1.29-1.7-1.75-2-3-5.44-3.97-9.52-9.98-15-14 5.11 5.96 11.01 11.82 17 17Z"/><path fill="none" fill-opacity="0" stroke="#F7AD16" stroke-width=".3" d="M85 123c-5.49 6.67-9.38 14.21-13 22 2.6-2.49 2.58.85 4 2 .69-2.66 2.94-5.29 5-7 4.24-7.72 10.21-15.34 16-22 .75-1.68 2.43-3.04 4-4 .67-1.2 1.64-2.58 3-3 5.61-4.26 10.29-10.68 16-15 2.66-2.86 7.02-3.47 9-7-15.21 9.3-28.35 24.47-41 36-1.29-.17-1.75-1.7-3-2Z"/><path fill="none" fill-opacity="0" stroke="#FDF792" stroke-width=".3" d="M159 100c-2.33 7.34-.34 16.83-1 25v8c2.3 6.76.36 15.49 1 23-16.07-1.74-49.8-11.34-47 16 .33 4.85 5.83 7.09 8 11 8.94 2.12 18.45 2.24 28 2h10c.61 37.93-1.26 76.48 1 114 .31 3.38 3.25 6.23 6 8-6.22-21.97-1.56-49.7-3-74-1.41-22.89 10.15-61.59-26-53-39.94.41-8.9-33.92 17-21h9c2.67-20.17-5.81-44.67 5.25-61.75 20.09-4.6 41.52-4.12 62.75-4.25 56-3.94 108.44 63.45 71 114-3.09 7.31-15.71 11.34-15 19 18.69-11.08 29.15-31.46 32-52 .22-7.48-.01-14.81-1-22-6.2-24.93-26.33-50.18-52-57 15.9 7.68 38.64 20.27 41 39-13.56-26.75-44.64-41.28-73.33-42.67-32.26-1.34-84.92-6-72.67 41.67-2.33-10.01-.33-22.17-1-33m-7 57c-11.93 4.22-28.35-5.88-38 6 5.18-14.3 27.06-6.88 38-6Z"/><path fill="none" fill-opacity="0" stroke="#FDED36" stroke-width=".3" d="M153 159c20.44 1.39 5.39-36.66 10-52 2.01 1.22 3.14 4.48 3 0 16.21 12.18 38.91-7.69 51 2 2.77-2.75 6.21-3.72 10-4 .12-4.22 1.41-8.16 3-12-21.23.13-42.66-.35-62.75 4.25-11.06 17.08-2.58 41.58-5.25 61.75h-9Z"/><path fill="none" fill-opacity="0" stroke="#FDD70B" stroke-width=".3" d="M153 159c-25.9-12.92-56.94 21.41-17 21 36.15-8.59 24.59 30.11 26 53 1.44 24.3-3.22 52.03 3 74 .13.8 1.09 1.11 1 2 12.28 6.75 31.29 3.22 36-11-.03-.5 0-1 0-1v-12c-1.18-13.88-2.24-29.46-1-43-1.39-.26-.78-2.05-1-3 18.71-2.38 39.8 1.39 57-5-9.98-3.3 3.95-21.29 2-31-19.43 12.87-43.8 10.87-67 11 .3-2.46 3.31-1.18 4-3 4.85-20.19 3.67-55.31 5-82 0-.5.23-1.65 0-2-1.93-1.26-3.91-3-5-5 1.76-7.65 37.62-4.41 51.02-1.02 34.25 8.16 46.2 55.72 17.98 78.02-.47 11.3 1.16 24.99-2 34 15.02-4.09 26.93-14.8 38-26 37.44-50.55-15-117.94-71-114-1.59 3.84-2.88 7.78-3 12-3.79.28-7.23 1.25-10 4-12.09-9.69-34.79 10.18-51-2 .14 4.48-.99 1.22-3 0-4.61 15.34 10.44 53.39-10 52Z"/><path fill="none" fill-opacity="0" stroke="#FBDA1E" stroke-width=".3" d="M104 111c12.79 4.87 19.75 23.59 34 26 3.13-12.22-3.57-20.49-12-28-3.42-2-5.55-5.95-9-8-.39-2.33 2.34-3.07 3-5-5.71 4.32-10.39 10.74-16 15Z"/><path fill="none" fill-opacity="0" stroke="#FAC031" stroke-width=".3" d="M150 151c2.18 1.8 4.73 4.34 8 4v-30c-1.78-7.61-5.41-14.83-4-24-2.33 15.68-.33 33.5-1 50h-3Z"/><path fill="none" fill-opacity="0" stroke="#E3AD9F" stroke-opacity=".29" stroke-width=".3" d="M412 112c-.85-1.44-1.18-3.4-3-4 .85 1.44 1.18 3.4 3 4Z"/><path fill="none" fill-opacity="0" stroke="#FDF76C" stroke-width=".3" d="M104 111c-1.36.42-2.33 1.8-3 3 13.64 6.59 21.62 24.7 38 24 2.72-12.82-2.53-22.13-13-29 8.43 7.51 15.13 15.78 12 28-14.25-2.41-21.21-21.13-34-26Z"/><path fill="none" fill-opacity="0" stroke="#FEE84D" stroke-width=".3" d="M53 277c6.11 17.3 17.2 32.19 28 47 5.8 5.01 9.45 12.52 16 17-1.36-3.11-5.78-4.45-6-8h4c-3.06-3.15-5.77-6.94-8-11-16-20.17-29.74-42.24-36-67-2.89-10.4-5.3-20.99-6-32-2.36-37.81 8.23-73.51 28-104-.37-3.45 4.68-6.03 3-9-39.14 44.14-45.84 113.4-23 167Z"/><path fill="none" fill-opacity="0" stroke="#FDEC3C" stroke-width=".3" d="M81 140c-6.06 11.22-11.61 22.74-14.98 35.02C56.96 194.18 86.19 185.26 96 189c-17.22 2.65-44.38-2.46-35 27 15.15-1 30.21-5.1 44-8-1.09-6.98-.38-14.41-3-21-5.83 1.24-7.31-6.52-9-12-7.34-2.19-19.99-.34-23-8 8.12.04 14.85 5.15 23 5 .19-11.53 4.66-21.32 13-29-16.95.1-3.91-16.2-9-25-5.79 6.66-11.76 14.28-16 22Z"/><path fill="none" fill-opacity="0" stroke="#FEF896" stroke-width=".3" d="M196 122c19.27 1.61 41.79-4.38 58 6 8.54 2.56 14.57 11.32 18 19 22.05 45.06-38.21 71.73-76 64-.69 1.82-3.7.54-4 3 23.2-.13 47.57 1.87 67-11 2.75.27 3.68-3.29 6-4 28.22-22.3 16.27-69.86-17.98-78.02-13.4-3.39-49.26-6.63-51.02 1.02Z"/><path fill="none" fill-opacity="0" stroke="#EDB135" stroke-width=".3" d="M201 127c-.55-1.46-2.4-2.18-2-4 19.17.11 37.78-.5 55 5-16.21-10.38-38.73-4.39-58-6 1.09 2 3.07 3.74 5 5Z"/><path fill="none" fill-opacity="0" stroke="#FA9A19" stroke-width=".3" d="M201 127c.23.35 0 1.5 0 2 .34.23 1 0 1 0 8.25-3.95 24.15-2.03 34-1 34.62-1.17 47.91 48.09 21 67 18.71-7.02 19.79-30.69 15-48-3.43-7.68-9.46-16.44-18-19-17.22-5.5-35.83-4.89-55-5-.4 1.82 1.45 2.54 2 4Z"/><path fill="none" fill-opacity="0" stroke="#DC5D16" stroke-width=".3" d="M202 129c-.18.74.05 1.91 1 2v-3h33c-9.85-1.03-25.75-2.95-34 1Z"/><path fill="none" fill-opacity="0" stroke="#BC1C12" stroke-width=".3" d="M203 131c-1.2 24.53 2.48 50.32-2 74h21c12.68.41 24.34-4.14 35-10 26.91-18.91 13.62-68.17-21-67h-33v3m10 67c-11.44-13.23-1.84-45.39-5-66 11.47 14.19 1.81 45.28 5 66m26-65c1.28.28 3.5-.76 4 1 4.14.15 7.59 2.92 11 5 1.93 1.26 3.91 3 5 5 1.29.44 2.21 1.58 2 3 .16.27.76.73 1 1 5.39 6.69 3.53 15.84 3 24-1.92.51-2.23-1.84-3-3-8.91-15.02-26.06-20.74-43-19-6.23-14.56 6.75-22.99 20-17m20 49c-.26.23-.79.73-1 1-6.64 9.54-18.22 12.73-29 14-4.38 2.62-13.78 1.63-11-6 .71-14.07-5.69-41.8 17-33 10.4 1.54 28.13 12.82 24 24Z"/><path fill="none" fill-opacity="0" stroke="#F8B725" stroke-width=".3" d="M196 211c37.79 7.73 98.05-18.94 76-64 4.79 17.31 3.71 40.98-15 48-10.66 5.86-22.32 10.41-35 10-5.92 1.63-15.15 1.69-21 0 4.48-23.68.8-49.47 2-74-.95-.09-1.18-1.26-1-2 0 0-.66.23-1 0-1.33 26.69-.15 61.81-5 82Z"/><path fill="none" fill-opacity="0" stroke="#F92316" stroke-width=".3" d="M213 198c-3.19-20.72 6.47-51.81-5-66 3.16 20.61-6.44 52.77 5 66Z"/><path fill="none" fill-opacity="0" stroke="#FA3015" stroke-width=".3" d="M219 150c4.52-8.62 26.52 1.25 24-15-1.41-.15-3.34-.65-4-2-13.25-5.99-26.23 2.44-20 17Z"/><path fill="none" fill-opacity="0" stroke="#FBDB59" stroke-width=".3" d="M150 151c-14.15 1.82-37.32-6.56-42 12 1.14 1.07-.71 4.05 0 6 2.72-2.42 2.48 2.2 4 3-2.8-27.34 30.93-17.74 47-16-.64-7.51 1.3-16.24-1-23v22c-3.27.34-5.82-2.2-8-4Z"/><path fill="none" fill-opacity="0" stroke="#FB7218" stroke-width=".3" d="M219 150c16.94-1.74 34.09 3.98 43 19 4.01-4.14-2.66-13.84 0-21-.24-.27-.84-.73-1-1-1.57 4.4-2.5 9.04-2 14-2.22.05-3.99-2.29-5-4-.25-.25-1 0-1 0-2.9-3.33-12.53-5.1-10-10 2.5-3.72 3.22-9.5 0-13-.5-1.76-2.72-.72-4-1 .66 1.35 2.59 1.85 4 2 2.52 16.25-19.48 6.38-24 15Z"/><path fill="none" fill-opacity="0" stroke="#FDE44C" stroke-width=".3" d="M243 147c-.17.43-.22 1.62 0 2 5.07.1 7.59 5.78 12 7-1.11-6.53 6.43-12.24-1-17-3.41-2.08-6.86-4.85-11-5 3.22 3.5 2.5 9.28 0 13Z"/><path fill="none" fill-opacity="0" stroke="#FBB324" stroke-width=".3" d="M243 149c3.1 2.56 8.03 3.81 10 8 0 0 .75-.25 1 0 1.25.3 1.71 1.83 3 2-1.26-5.84 4.09-9.43 2-15-1.09-2-3.07-3.74-5-5 7.43 4.76-.11 10.47 1 17-4.41-1.22-6.93-6.9-12-7Z"/><path fill="none" fill-opacity="0" stroke="#F4B327" stroke-width=".3" d="M317 152c.99 7.19 1.22 14.52 1 22 2.02-7.37.13-16.55 3-24-1.2-3.67-1.22-8.2-4-11-.31 4.77-.3 8.27 0 13Z"/><path fill="none" fill-opacity="0" stroke="#FDCC10" stroke-width=".3" d="M72 145c-6.61 13.89-11.65 28.68-14 44-1.54 10.43-2.32 21.09-2 32 1.58-6.36 1.46-14.03 2-21 .55 29.21 4.44 60.21 21 84 6.06-3.14 11.13-8.48 18-10-2.54 3.3-5.69 6.56-9 9-1.68 2.66-4.12 4.91-7 6 8.95 16.76 24.37 31.34 38 44-2.65-2.93.28-5.74 2-8 4.44-9.25 11.33-17.03 18-25v-65c1.83-.23 3.47.07 5 1-15.75-.79-36.28-5.53-39-26-.08-.49-.02-1.5 0-2-13.79 2.9-28.85 7-44 8-9.38-29.46 17.78-24.35 35-27-9.81-3.74-39.04 5.18-29.98-13.98 3.37-12.28 8.92-23.8 14.98-35.02-2.06 1.71-4.31 4.34-5 7-1.42-1.15-1.4-4.49-4-2m65 104c.95 26.1-28.58 39.41-44 57-7.69-6.31-1.36-16.69-5-20 13.01-5.52 20.94-27 36-22 .23-2.88-4.11-3.79-3-7 5.62-1.77 9.42-8.54 16-8Z"/><path fill="none" fill-opacity="0" stroke="#FEF474" stroke-width=".3" d="M425 168c-.38 5.9 2.86 12.67 0 18-3.65-14.64-6.41-30.11-14-43 9.48 18.44 8.99 42.59 17 60 2.5-11.53.47-24.5-3-35Z"/><path fill="none" fill-opacity="0" stroke="#FE971D" stroke-width=".3" d="M254 157c1.01 1.71 2.78 4.05 5 4-.5-4.96.43-9.6 2-14 .21-1.42-.71-2.56-2-3 2.09 5.57-3.26 9.16-2 15-1.29-.17-1.75-1.7-3-2Z"/><path fill="none" fill-opacity="0" stroke="#F49110" stroke-width=".3" d="M253 157c-1.97-4.19-6.9-5.44-10-8-.22-.38-.17-1.57 0-2-2.53 4.9 7.1 6.67 10 10Z"/><path fill="none" fill-opacity="0" stroke="#F74B1D" stroke-width=".3" d="M262 169c.77 1.16 1.08 3.51 3 3 .53-8.16 2.39-17.31-3-24-2.66 7.16 4.01 16.86 0 21Z"/><path fill="none" fill-opacity="0" stroke="#B7141A" stroke-width=".3" d="M323 173c-2.68 44.59-47.61 75.08-90 74-51.5-13.5-9.25 53.81-41 68-14.88 5.84-37.89.74-39-18-2.33-34.43-.33-70.82-1-106-8.17-.66-17.66 1.33-25-1-9.88 1.62-19.03-5.65-21-15-1.71-3.23-1.28-8.64-5-11-3.72 6.3 1.99 13.11 0 19-.08 1.45.07 2.86 1 4 2.62 6.59 1.91 14.02 3 21-.02.5-.08 1.51 0 2 3.85 5 8.1 11.86 15 13h25v13c1.45 26.49-4.31 55.02 6 79 2.03 1.77.53 5.48 1 8 1.49 4.53 3.11 9.71 6 14 37.94 39.08 79.06-18.06 63-59 15.35.26 32.24 3.38 46-3-17.06 6.75-56.68-11.13-47 22 20.42 46.88-64.37 70.84-62 26 1.42-4.97-1.71-4.96-3-7 1.28.28 3.5-.76 4 1 3.21 2.75 7.52 2.69 11 5 7.21.47 14.03-.48 21-1 8.97-4.79 19.58-13.22 18-25v-43c11.04 4.83 2.12 27.86 5 40 2.43-11.48.76-25.53 3-37 .89 4.52 1.56 9.8 2 15 8.38 1.48 19.04 1.8 27 0h-23c-11.07-25.55 29.09-15.89 44-24 3.06-1.27 5.71-3.45 9-4 3.71-1.98 7.62-3.46 11-6 10.61-6.25 18.77-18.57 28-27 4.46-7.62 7.73-15.54 10-24 2.61 5.61.15 12.89 0 19-.95 4.92-.51 10.86-3 15 .23.35 0 1 0 1 .94 27.42-29.99 44.66-54 54 27.58-5.06 53.11-27.31 61-54 1.9-7.76 2.38-16.55 4-24v-21c-.13-6.48-1.1-12.74-2-19-2.69-.55-1.72-5.93-4-2 .98-4.24-3.07-4.34-5-7 2.01 7.72 3.26 17.39 1 25m-197 43c-6.6-.72-13.81-5.75-14-13-1.87-1.14-.61-4.13-1-6-1.96-1.45-.56-4.8-1-7 10.48 6.81 23.54 4.83 36 5 4.13 16.15-3.21 28.12-20 21Z"/><path fill="none" fill-opacity="0" stroke="#F19A1A" stroke-width=".3" d="M318 174c-2.85 20.54-13.31 40.92-32 52-5.95 5.93-15.31 6.83-22 11 34.23-5.1 55.42-42.25 59-72 .08-5.11-.38-10.67-2-15-2.87 7.45-.98 16.63-3 24Z"/><path fill="none" fill-opacity="0" stroke="#FEFEC7" stroke-width=".3" d="M152 157c-10.94-.88-32.82-8.3-38 6 9.65-11.88 26.07-1.78 38-6Z"/><path fill="none" fill-opacity="0" stroke="#FA8E1C" stroke-width=".3" d="M218 191c0 .05 1 0 1 0 1.33-11.8-5.8-38.03 13.67-30.67 11.57 1.89 21.7 8.42 26.33 18.67v3c4.13-11.18-13.6-22.46-24-24-22.69-8.8-16.29 18.93-17 33Z"/><path fill="none" fill-opacity="0" stroke="#FDDC23" stroke-width=".3" d="M334 176s-1-.01-1 0v11c12.23 12.18 5.12 31.13 4 47 12.76 5.48 35.13 5.36 40 19-3.53 7.76-5.94 16.39-10 24-11.81-2.86-20.29-13.76-31-19 8.27 12.08 39.22 23.13 19 38-1.89 2.14-2.14 4.86-4 7-7.17 10.58-18.15 18.26-26 28-7.71-5.28-11.74-16.24-20-22 3.19 9.27 12.15 16 16 25-15.13 10.14-30.94 19.43-48.22 25.78-17.2-1.8-13.48-35.66-21.78-50.78-1.42 6.97 3.59 15.29 4 23 2.9 10.27 5.6 20.63 8 31-20.09 4.93-43.38 5.1-64 3-7.39-1.08-14.79-2.13-22-4-12.56-2.12-24.21-8.23-35-14-7.27-5.93-15.53-9.58-23-15-13.63-12.66-29.05-27.24-38-44 2.88-1.09 5.32-3.34 7-6-3.01 3.67-13.21 8.44-9 1-16.56-23.79-20.45-54.79-21-84-.54 6.97-.42 14.64-2 21 2.1 29.38 12.97 57.19 30 81 90.14 146.66 346.02 37.34 294-130-2.26-.43-1.78-3.51-4-4-1 2.76 2.66 5.97 0 8-1.53-6.51-3.79-13.37-7-19 .62 4.14 1.81 7.57 3 11-10.42 1.17-26.08 14.47-33 5 .1 4.31-.95 8.33-3 12-3.53-1.42-1.44-6.09-2-9Z"/><path fill="none" fill-opacity="0" stroke="#FBB508" stroke-width=".3" d="M219 191h5v-26c10.65-1.1 22.67 2.5 28 12 2.73-.49 5.02.3 7 2-4.63-10.25-14.76-16.78-26.33-18.67C213.2 152.97 220.33 179.2 219 191Z"/><path fill="none" fill-opacity="0" stroke="#F6AB26" stroke-width=".3" d="M107 166v10c5.17-.62 8.41 5.24 13 7-2.17-3.91-7.67-6.15-8-11-1.52-.8-1.28-5.42-4-3-.71-1.95 1.14-4.93 0-6-1.47.27-.89 2-1 3Z"/><path fill="none" fill-opacity="0" stroke="#FCE734" stroke-width=".3" d="M219 191c.25.25 0 1 0 1 4.84.39 9.05-1.74 14-1-1.25-8.16-2.63-16.35-2-25 8.54.75 19.28 5.72 21 15 2.38-2.52 3.98 1.24 6 2 .21-.27.74-.77 1-1v-3c-1.98-1.7-4.27-2.49-7-2-5.33-9.5-17.35-13.1-28-12v26h-5Z"/><path fill="none" fill-opacity="0" stroke="#F88211" stroke-width=".3" d="M264 237c-8.3 1.71-16.48 4.01-25 5-11.76 2.32-25.49.34-38 1 2.31 13.5.35 28.08 1 42v12c2.33-16.43.34-34.82 1-52 9.12 4 20.07 1.13 30 2 42.39 1.08 87.32-29.41 90-74v-8c-3.58 29.75-24.77 66.9-59 72Z"/><path fill="none" fill-opacity="0" stroke="#F88215" stroke-width=".3" d="M106 175c1.97 9.35 11.12 16.62 21 15 8.59.62 17.85-1.27 26 1-.52-2.14 2.57-2.81 2-5-2.19-.52-5.62 1.14-7-1-9.55.24-19.06.12-28-2-4.59-1.76-7.83-7.62-13-7v-10c-2.22 2.02-.41 6.16-1 9Z"/><path fill="none" fill-opacity="0" stroke="#FDF97B" stroke-width=".3" d="M219 192v5h10c10.78-1.27 22.36-4.46 29-14-2.02-.76-3.62-4.52-6-2-1.72-9.28-12.46-14.25-21-15-.63 8.65.75 16.84 2 25-4.95-.74-9.16 1.39-14 1Z"/><path fill="none" fill-opacity="0" stroke="#D43502" stroke-width=".3" d="M45 223c.7 11.01 3.11 21.6 6 32 3.53-2.25 2.29 5.07 5 6-9.58-29.71-10.54-64.59-2-94-7.91 17.29-7.02 38.16-7 58-1.44.06-.74-1.92-2-2Z"/><path fill="none" fill-opacity="0" stroke="#FEEF66" stroke-width=".3" d="M19 183c-1.14 1.64-2.46 3.88-3 6-3.53-1.42-1.44-6.09-2-9-4.71 16.14 4.27 22.49 5 3Z"/><path fill="none" fill-opacity="0" stroke="#FBA819" stroke-width=".3" d="M153 191v97c1.99 7.26 5.09 17.41 13 21 .09-.89-.87-1.2-1-2-2.75-1.77-5.69-4.62-6-8-5.95-36.12 1.94-78.46-4-114h-7c1.38 2.14 4.81.48 7 1 .57 2.19-2.52 2.86-2 5Z"/><path fill="none" fill-opacity="0" stroke="#E3B330" stroke-width=".3" d="M159 299c-2.26-37.52-.39-76.07-1-114h-3c5.94 35.54-1.95 77.88 4 114Z"/><path fill="none" fill-opacity="0" stroke="#F32854" stroke-width=".3" d="M315 210c3.43-1.45 6.16-7.21 10-5 .15-6.11 2.61-13.39 0-19-2.27 8.46-5.54 16.38-10 24Z"/><path fill="none" fill-opacity="0" stroke="#FDB002" stroke-width=".3" d="M333 197c4.78 3.15 3.4 12.31 2 17 .38 6.12-3.99 10.91-4 17 .42 8.43.95 13.58-2 21-6.02 19.81-24.81 33.59-42 43 12.82-3.6 21.85-15.07 33-21 6.37 12.9 20.36 19.2 27 32 1.66-.54 2.33-2.56 4-3 1.86-2.14 2.11-4.86 4-7 1.27-4.12 2.37-6.92 4-11-2.82-9.4-16.3-15.29-22-24-3.39.95-5.65-1.15-8-3 1.14-7.26 4.06-14.11 6-21 14.44 2.28 28.59 18.83 42 16-4.87-13.64-27.24-13.52-40-19 1.12-15.87 8.23-34.82-4-47v10Z"/><path fill="none" fill-opacity="0" stroke="#EA6C03" stroke-width=".3" d="M86 302c-17.03-23.81-27.9-51.62-30-81-.32-10.91.46-21.57 2-32-9.12 40.02 1.27 82.36 28 113Z"/><path fill="none" fill-opacity="0" stroke="#F4191A" stroke-width=".3" d="M111 197c.39-1.57-.94-4.22 1-5 4.99 14.22 16.9 23.28 33 21-.82 6.17-11.2 1.59-16 3h-3c16.79 7.12 24.13-4.85 20-21-12.46-.17-25.52 1.81-36-5 .44 2.2-.96 5.55 1 7Z"/><path fill="none" fill-opacity="0" stroke="#DF611B" stroke-width=".3" d="M153 297V191c-8.15-2.27-17.41-.38-26-1 7.34 2.33 16.83.34 25 1 .67 35.18-1.33 71.57 1 106Z"/><path fill="none" fill-opacity="0" stroke="#FCBD7B" stroke-width=".3" d="M229 197h-10v-5s.25-.75 0-1c0 0-1 .05-1 0-2.78 7.63 6.62 8.62 11 6Z"/><path fill="none" fill-opacity="0" stroke="#FC5F1B" stroke-width=".3" d="M111 197c.39 1.87-.87 4.86 1 6 2.71.03 13.2 11.88 17 13 4.8-1.41 15.18 3.17 16-3-16.1 2.28-28.01-6.78-33-21-1.94.78-.61 3.43-1 5Z"/><path fill="none" fill-opacity="0" stroke="#A36059" stroke-opacity=".51" stroke-width=".3" d="M3 234v-38c-1.67 11.52-1.66 26.41 0 38Z"/><path fill="none" fill-opacity="0" stroke="#FC7804" stroke-width=".3" d="M329 221c-.98 41.53-46.75 64.68-84 66-.38 3.61.46 6.89 2 10-5.02 2.82-12.39-.86-17 2 14.71.73 28.07-3.53 43-2 5.09.9 9.29-1.34 14-2 17.19-9.41 35.98-23.19 42-43-1.08-1.75-2.12-4.22-5-4 3.21-5.32 2.94-12.36 7-17 .01-6.09 4.38-10.88 4-17-.58-5.66-3-10.9-2-17-1.62 7.45-2.1 16.24-4 24Z"/><path fill="none" fill-opacity="0" stroke="#FD9707" stroke-width=".3" d="M335 214c1.4-4.69 2.78-13.85-2-17-1 6.1 1.42 11.34 2 17Z"/><path fill="none" fill-opacity="0" stroke="#FBC004" stroke-width=".3" d="M259 203c1.95 9.71-11.98 27.7-2 31 2.27.59 3.9-.85 6-1 3.16-9.01 1.53-22.7 2-34-2.32.71-3.25 4.27-6 4Z"/><path fill="none" fill-opacity="0" stroke="#F69728" stroke-width=".3" d="M396 223c1.68-6.52 1.64-16.41 0-23v23Z"/><path fill="none" fill-opacity="0" stroke="#FB992D" stroke-width=".3" d="M112 203c.19 7.25 7.4 12.28 14 13h3c-3.8-1.12-14.29-12.97-17-13Z"/><path fill="none" fill-opacity="0" stroke="#ED3B95" stroke-width=".3" d="M315 210c-8.12 9.95-16.2 21.4-28 27-6.98 6.76-13.48 14.28-18 23 4.02 2.11 8.05.05 12-1 .49-.06 1.59.19 2 0 .3-1.25 1.83-1.71 2-3-2.17 1.22-4.34 2.42-7 2-1.4 1.21-3.26.98-5 1 12.77-17 30.17-36.51 49-47 .13 2.75-2.2 5.44 0 8 2.49-4.14 2.05-10.08 3-15-3.84-2.21-6.57 3.55-10 5Z"/><path fill="none" fill-opacity="0" stroke="#FEFAAE" stroke-width=".3" d="M422 212c-1.82-9.15-11.5-9.32-13 0h13Z"/><path fill="none" fill-opacity="0" stroke="#D57E10" stroke-width=".3" d="M8 229v-24c-1.68 6.85-1.64 17.08 0 24Z"/><path fill="none" fill-opacity="0" stroke="#C95603" stroke-width=".3" d="M222 205h-21c5.85 1.69 15.08 1.63 21 0Z"/><path fill="none" fill-opacity="0" stroke="#FEF15A" stroke-width=".3" d="M263 233c-2.1.15-3.73 1.59-6 1-17.2 6.39-38.29 2.62-57 5 .22.95-.39 2.74 1 3h38c8.52-.99 16.7-3.29 25-5 6.69-4.17 16.05-5.07 22-11-.71-7.66 11.91-11.69 15-19-11.07 11.2-22.98 21.91-38 26Z"/><path fill="none" fill-opacity="0" stroke="#EFA302" stroke-width=".3" d="M13 239v-9c1.67.24.17 2.85 2 3-1.4-7.52-1.27-15.92-3-23 .65 9.51-1.31 20.24 1 29Z"/><path fill="none" fill-opacity="0" stroke="#FB9D0D" stroke-width=".3" d="M144 236c.34.23 1 0 1 0v-2c-2.03-1.77-.53-5.48-1-8-5.83-.66-12.99 1.32-18-1-1.83-.91-4.74-.34-6-2-6.9-1.14-11.15-8-15-13 2.72 20.47 23.25 25.21 39 26Z"/><path fill="none" fill-opacity="0" stroke="#C60D45" stroke-width=".3" d="M287 237c11.8-5.6 19.88-17.05 28-27-9.23 8.43-17.39 20.75-28 27Z"/><path fill="none" fill-opacity="0" stroke="#D850CC" stroke-width=".3" d="M278 258c11.91-15.47 26.83-30.44 42-42 .38 6.07-3.56 10.86-6 16 4.21-2.22 4.51-7.82 7-11 .18-.24 1 0 1 0s.23-.65 0-1c-2.2-2.56.13-5.25 0-8-18.83 10.49-36.23 30-49 47 1.74-.02 3.6.21 5-1Z"/><path fill="none" fill-opacity="0" stroke="#9D3236" stroke-opacity=".93" stroke-width=".3" d="M3 234c.96 21.54 6.13 42.09 13 62 5.81-.79 5.1 7.01 9 9-.97-1.91-1.59-3.9-2-6-2.73-5.43-4.24-11.24-6-17-.99-2.24-2.02-4.46-2-7-2.47-9.2-3.97-18.66-6-28-.47-2.52 1.03-6.23-1-8-4.59-5.77-.72-17.81-2-26-1.16.48-1.94 1.11-3 0v21Z"/><path fill="none" fill-opacity="0" stroke="#FAAF04" stroke-width=".3" d="M422 213h-13c-.86 5.95 3.2 10.51 4 16 6.99-.79 8.26-10.3 9-16Z"/><path fill="none" fill-opacity="0" stroke="#C07CEB" stroke-width=".3" d="M278 258c2.66.42 4.83-.78 7-2 1.05-1.37 3.44-.23 4-2h-4c8.65-9.8 17.67-22.59 30-27-3.15 7.82-10.06 13.3-15 20 5.4-4.25 9.22-10.12 14-15 2.44-5.14 6.38-9.93 6-16-15.17 11.56-30.09 26.53-42 42Z"/><path fill="none" fill-opacity="0" stroke="#D5498B" stroke-width=".3" d="M314 232c-4.78 4.88-8.6 10.75-14 15-1.55 1.55-4.17 1.83-5 4 8.86-3.52 14.22-13.47 22-19 .96-3.82 3.9-6.94 4-11-2.49 3.18-2.79 8.78-7 11Z"/><path fill="none" fill-opacity="0" stroke="#A8022E" stroke-width=".3" d="M317 232c-6.7 10.34-15.92 19.74-27 25-7.45 4.55-15.23 8.99-24 10-1.94.91-3.68 2.33-6 2-4.71.41-9.04 2.46-14 2-7.96 1.8-18.62 1.48-27 0-.44-5.2-1.11-10.48-2-15-2.24 11.47-.57 25.52-3 37v24c.33 10.95-9.22 19.26-19 22-5.24 2.19-11.12 2.23-17 2-2.67-.8-7.96.02-8-4-4.48-.8-9.09-5.21-9-10-1.11-.84-2.04-2.46-2-4v-6c-.5-1.76-2.72-.72-4-1 1.29 2.04 4.42 2.03 3 7-2.37 44.84 82.42 20.88 62-26-9.68-33.13 29.94-15.25 47-22 .3-.24 1 0 1 0 24.01-9.34 54.94-26.58 54-54 0 0-.82-.24-1 0-.1 4.06-3.04 7.18-4 11Z"/><path fill="none" fill-opacity="0" stroke="#EC3009" stroke-width=".3" d="M268 275s-.7-.24-1 0c-13.76 6.38-30.65 3.26-46 3 16.06 40.94-25.06 98.08-63 59 .16.44 0 1 0 1 22.42 44.76 84.62 1.16 68-41 2.28-.85 2.59 1.15 4 2 4.61-2.86 11.98.82 17-2-1.54-3.11-2.38-6.39-2-10 37.25-1.32 83.02-24.47 84-66-7.89 26.69-33.42 48.94-61 54Z"/><path fill="none" fill-opacity="0" stroke="#E2420D" stroke-width=".3" d="M126 225c6.27.57 13.16-1.2 19 1v-3h-25c1.26 1.66 4.17 1.09 6 2Z"/><path fill="none" fill-opacity="0" stroke="#EE7401" stroke-width=".3" d="M413 283c5.76-6.62 6.91-16.73 10-25 2.15 3.58-2.35 8.46-1 13 3.78-7.04 3.38-16.69 6-24 .89-7.58 2.18-16.83 0-24-2.23 20.75-7.81 40.69-15 60Z"/><path fill="none" fill-opacity="0" stroke="#F67412" stroke-width=".3" d="M145 234v-8c-5.84-2.2-12.73-.43-19-1 5.01 2.32 12.17.34 18 1 .47 2.52-1.03 6.23 1 8Z"/><path fill="none" fill-opacity="0" stroke="#ACAAF3" stroke-width=".3" d="M289 254c2.28-.55 3.59-2.99 6-3 .83-2.17 3.45-2.45 5-4 4.94-6.7 11.85-12.18 15-20-12.33 4.41-21.35 17.2-30 27h4Z"/><path fill="none" fill-opacity="0" stroke="#FB7819" stroke-width=".3" d="M13 239v8c2.54 11.64 5.21 24.09 8 36-3.52-.46-2.33-6.78-6-8-.02 2.54 1.01 4.76 2 7 7.59 7.72 7.13 22.44 17 28-1.48 8.57 8.54 14.98 11 23 .09.48 0 1 0 1 16.34 20.93 37.18 39.45 58 55 2.86.13 4.18 3.51 7 4 73.28 42.89 174.12 38.73 241-14 3.49-.84 5.89-4.22 9-6 .32-.24 1 0 1 0 9.12-9.83 18.88-19.56 28-29 .16-.44 0-1 0-1 2.49-4.18 6.01-8.13 10-11 .22-.36 0-1 0-1 4.27-7.5 9.98-15.07 15-22 1.94-4.72 3.83-9.36 6-14-5.52 2.89-4.13 10.75-9 14-2.54-6.28 5.73-9.57 4-16-67.88 181.67-369.57 155.46-397-36 .37 2.88 1.67 6.26 4 8-2.38-10.68-6.42-20.88-7-32-1.83-.15-.33-2.76-2-3v9Z"/><path fill="none" fill-opacity="0" stroke="#FD9703" stroke-width=".3" d="M329 252c2.95-7.42 2.42-12.57 2-21-4.06 4.64-3.79 11.68-7 17 2.88-.22 3.92 2.25 5 4Z"/><path fill="none" fill-opacity="0" stroke="#B22605" stroke-width=".3" d="M56 261c-2.71-.93-1.47-8.25-5-6 6.26 24.76 20 46.83 36 67 26.21 29.24 60.72 50.27 98 58 7.09.33 13.97 1.49 21 2h27c79.76-3.03 154.09-71.24 162-151-13.04 70.96-77.24 141.07-154.33 147.67C159.89 389.33 81.4 336.43 56 261Z"/><path fill="none" fill-opacity="0" stroke="#E53668" stroke-width=".3" d="M295 251c-2.41.01-3.72 2.45-6 3-.56 1.77-2.95.63-4 2-.17 1.29-1.7 1.75-2 3 1.96-1.29 4.88-4.94 7-2 11.08-5.26 20.3-14.66 27-25-7.78 5.53-13.14 15.48-22 19Z"/><path fill="none" fill-opacity="0" stroke="#FEEE67" stroke-width=".3" d="M139 300c1.32 7.92 7 14.25 11 21 1.87-1.14.61-4.13 1-6-10.31-23.98-4.55-52.51-6-79 0 0-.66.23-1 0-1.53-.93-3.17-1.23-5-1v65Z"/><path fill="none" fill-opacity="0" stroke="#F8306C" stroke-width=".3" d="M276 243c-10.72 10.1-15.23 27.74 5 16-3.95 1.05-7.98 3.11-12 1 4.52-8.72 11.02-16.24 18-23-3.38 2.54-7.29 4.02-11 6Z"/><path fill="none" fill-opacity="0" stroke="#FCC804" stroke-width=".3" d="M355 296c20.22-14.87-10.73-25.92-19-38 10.71 5.24 19.19 16.14 31 19 4.06-7.61 6.47-16.24 10-24-13.41 2.83-27.56-13.72-42-16-1.94 6.89-4.86 13.74-6 21 2.35 1.85 4.61 3.95 8 3 5.7 8.71 19.18 14.6 22 24-1.63 4.08-2.73 6.88-4 11Z"/><path fill="none" fill-opacity="0" stroke="#FBBF2D" stroke-width=".3" d="M202 285c-.65-13.92 1.31-28.5-1-42 12.51-.66 26.24 1.32 38-1h-38c-1.24 13.54-.18 29.12 1 43Z"/><path fill="none" fill-opacity="0" stroke="#F92A4A" stroke-width=".3" d="M267 247c-3.08 6.35-5.65 10.22-8 17 2.18 1.97 8.66-.11 7 3 8.77-1.01 16.55-5.45 24-10-2.12-2.94-5.04.71-7 2-.41.19-1.51-.06-2 0-20.23 11.74-15.72-5.9-5-16-3.29.55-5.94 2.73-9 4Z"/><path fill="none" fill-opacity="0" stroke="#ED4D15" stroke-width=".3" d="M202 297s-.03.5 0 1c.33 7.24-4.02 13.93-10 17 31.75-14.19-10.5-81.5 41-68-9.93-.87-20.88 2-30-2-.66 17.18 1.33 35.57-1 52Z"/><path fill="none" fill-opacity="0" stroke="#FBA120" stroke-width=".3" d="M15 275c3.67 1.22 2.48 7.54 6 8-2.79-11.91-5.46-24.36-8-36-.34 1.56.75 4.17-1 5-1.26-1.61-.61-4.32-3-5 2.03 9.34 3.53 18.8 6 28Z"/><path fill="none" fill-opacity="0" stroke="#F81123" stroke-width=".3" d="M223 271c5.71-6.52 28.72-6.59 40-4-.24 1.67-2.85.17-3 2 2.32.33 4.06-1.09 6-2 1.66-3.11-4.82-1.03-7-3 2.35-6.78 4.92-10.65 8-17-14.91 8.11-55.07-1.55-44 24Z"/><path fill="none" fill-opacity="0" stroke="#FBA117" stroke-width=".3" d="M422 271c-1.11 7.64-4.18 14.81-7 22 1.73 6.43-6.54 9.72-4 16 4.87-3.25 3.48-11.11 9-14 2.31-7.33 4.5-14.71 7-22 1.73-6.58 2.6-13.36 4-20-1.75.15-1.73 2.44-3 3v-9c-2.62 7.31-2.22 16.96-6 24Z"/><path fill="none" fill-opacity="0" stroke="#FDB401" stroke-width=".3" d="M137 249c-6.58-.54-10.38 6.23-16 8-1.11 3.21 3.23 4.12 3 7-15.06-5-22.99 16.48-36 22 3.64 3.31-2.69 13.69 5 20 15.42-17.59 44.95-30.9 44-57Z"/><path fill="none" fill-opacity="0" stroke="#F40934" stroke-width=".3" d="M209 296c2.03-.96 3.75-1.17 5-3-2.88-12.14 6.04-35.17-5-40v43Z"/><path fill="none" fill-opacity="0" stroke="#96312D" stroke-opacity=".91" stroke-width=".3" d="M427 273c-2.5 7.29-4.69 14.67-7 22-2.17 4.64-4.06 9.28-6 14-.13.8-1.09 1.11-1 2 6.6-6.85 8.32-20.85 15-25 4.01-10.16 6.05-21.91 8-33-6.13 3.82-4.26 14.53-9 20Z"/><path fill="none" fill-opacity="0" stroke="#F8A002" stroke-width=".3" d="M393 265c-3.11 10-7 19.67-12 29 9.55-5.99 5.33-27.25 20-23 5.06 6.37 2.41 16.74 1 25 6.61-12.07 5.33-30.88-2-42-5.46.7-3.04 8.47-7 11Z"/><path fill="none" fill-opacity="0" stroke="#EC4D01" stroke-width=".3" d="M415 293c2.82-7.19 5.89-14.36 7-22-1.35-4.54 3.15-9.42 1-13-3.09 8.27-4.24 18.38-10 25-62.19 178.79-346.28 165.32-391-18-2.33-1.74-3.63-5.12-4-8 27.43 191.46 329.12 217.67 397 36Z"/><path fill="none" fill-opacity="0" stroke="#FD5022" stroke-width=".3" d="M223 271h23c4.96.46 9.29-1.59 14-2 .15-1.83 2.76-.33 3-2-11.28-2.59-34.29-2.52-40 4Z"/><path fill="none" fill-opacity="0" stroke="#FC8F04" stroke-width=".3" d="M381 294c-2.45 3.1-3.52 6.89-6 10-1.15 6.72-6.53 10.02-7 17-5.22 2.31-13.83 11.22-14 17-13.82 9.49-32.08 21.59-42 33-6.43-3.19-10.56 4.38-17 4-19.71 6.78-39.79 13.25-61 15-7.26 1.64-17.81 1.68-25 0-38-1.73-72.98-17.3-103-40-9.63-7.56-18.76-15.63-25-26-10.8-14.81-21.89-29.7-28-47-2.26-.43-1.78-3.51-4-4-8.26 84.46 92.28 133.82 164 136 78.98 4.77 155.83-42.04 189-113 1.41-8.26 4.06-18.63-1-25-14.67-4.25-10.45 17.01-20 23Z"/><path fill="none" fill-opacity="0" stroke="#FEF566" stroke-width=".3" d="M79 284c-4.21 7.44 5.99 2.67 9-1 3.31-2.44 6.46-5.7 9-9-6.87 1.52-11.94 6.86-18 10Z"/><path fill="none" fill-opacity="0" stroke="#FDC103" stroke-width=".3" d="M287 295c-4.71.66-8.91 2.9-14 2-7.77 2.63-17.86-.5-26 2 2.03 11.05 3.06 23.23 8 33-.41-7.71-5.42-16.03-4-23 8.3 15.12 4.58 48.98 21.78 50.78 17.28-6.35 33.09-15.64 48.22-25.78-3.85-9-12.81-15.73-16-25 8.26 5.76 12.29 16.72 20 22 7.85-9.74 18.83-17.42 26-28-1.67.44-2.34 2.46-4 3-6.64-12.8-20.63-19.1-27-32-11.15 5.93-20.18 17.4-33 21m0 16c-4.68-1.98-6.18-8.43-8-13 4.36 2.07 6.23 8.51 8 13m-3 33c-8.56-2.53 1.02-9.46 0 0Z"/><path fill="none" fill-opacity="0" stroke="#FA835D" stroke-width=".3" d="M23 299c1.9 3.14 4.6 6.55 6 10 5.75 7.33 9.04 17.35 16 24-2.46-8.02-12.48-14.43-11-23-9.87-5.56-9.41-20.28-17-28 1.76 5.76 3.27 11.57 6 17Z"/><path fill="none" fill-opacity="0" stroke="#882A40" stroke-opacity=".89" stroke-width=".3" d="M413 311c-1.37 2.69-2.65 5.31-4 8 2.25 3.08 4.07-1.71 5 2 6.29-10.63 10.88-22.94 14-35-6.68 4.15-8.4 18.15-15 25Z"/><path fill="none" fill-opacity="0" stroke="#F88312" stroke-width=".3" d="M153 297c1.11 18.74 24.12 23.84 39 18 5.98-3.07 10.33-9.76 10-17-4.71 14.22-23.72 17.75-36 11-7.91-3.59-11.01-13.74-13-21v9Z"/><path fill="none" fill-opacity="0" stroke="#F02A64" stroke-width=".3" d="M209 296c1.58 11.78-9.03 20.21-18 25-2.83 5.91 2.65 10.54-1 16 1.78.25 5.36-1.03 5 2 9.78-2.74 19.33-11.05 19-22 0 .04-1 0-1 0-.17 6.15-4.19 12.57-10 15-1.57 4.26-6.5 2.75-10 3 4.79-11 10.15-25.81 21-31v-11c-1.25 1.83-2.97 2.04-5 3Z"/><path fill="none" fill-opacity="0" stroke="#7C204D" stroke-opacity=".92" stroke-width=".3" d="M414 321c-.93-3.71-2.75 1.08-5-2-.17.43 0 1 0 1-2.19 3.2-2.68 7.8-6 10-71.15 137.02-293.13 136.07-366 0-4.21-8.19-8.52-16.44-12-25-3.9-1.99-3.19-9.79-9-9 50.37 174.74 326.41 191.73 398 25Z"/><path fill="none" fill-opacity="0" stroke="#FA5A02" stroke-width=".3" d="M158 338c.57.94 1.15 1.82 1 3 1.79 9.19 9.34 17.92 18 21 7.21 1.87 14.61 2.92 22 4 36.47 2.57 31.54-41.97 31-67-1.41-.85-1.72-2.85-4-2 16.62 42.16-45.58 85.76-68 41Z"/><path fill="none" fill-opacity="0" stroke="#FDA203" stroke-width=".3" d="M230 299c.54 25.03 5.47 69.57-31 67 20.62 2.1 43.91 1.93 64-3-2.4-10.37-5.1-20.73-8-31-4.94-9.77-5.97-21.95-8-33 8.14-2.5 18.23.63 26-2-14.93-1.53-28.29 2.73-43 2Z"/><path fill="none" fill-opacity="0" stroke="#FEE932" stroke-width=".3" d="M287 311c-1.77-4.49-3.64-10.93-8-13 1.82 4.57 3.32 11.02 8 13Z"/><path fill="none" fill-opacity="0" stroke="#EA7697" stroke-width=".3" d="M25 305c3.48 8.56 7.79 16.81 12 25 4.9 1.84 6.26 7.59 10 11 2.41 1.11 3.62 3.96 6 5v-1c-9.98-10.56-17.96-23.04-24-36-1.4-3.45-4.1-6.86-6-10 .41 2.1 1.03 4.09 2 6Z"/><path fill="none" fill-opacity="0" stroke="#F8B21E" stroke-width=".3" d="M121 325c6.1-6.05 9.43-16.34 18-20 .72 7.88 9.23 11.74 10 19 .94-.57 1.82-1.15 3-1-.47-2.52 1.03-6.23-1-8-.39 1.87.87 4.86-1 6-4-6.75-9.68-13.08-11-21-6.67 7.97-13.56 15.75-18 25Z"/><path fill="none" fill-opacity="0" stroke="#F03EA0" stroke-width=".3" d="M203 332c-1.67 1.42-3.96.89-6 1 1.95-6.46 14.98-34.47 16-16 0 0 1 .04 1 0v-13c-10.85 5.19-16.21 20-21 31 3.5-.25 8.43 1.26 10-3Z"/><path fill="none" fill-opacity="0" stroke="#EFA226" stroke-width=".3" d="M363 321c-2.03 2.73-4.43 5.04-6 8-4.85 5.66-10.37 11.22-16 16-13.94 12.36-30.45 20.81-46 30 6.44.38 10.57-7.19 17-4 9.92-11.41 28.18-23.51 42-33 .17-5.78 8.78-14.69 14-17 .47-6.98 5.85-10.28 7-17-4.55 5.02-6.66 12.49-12 17Z"/><path fill="none" fill-opacity="0" stroke="#FD9C03" stroke-width=".3" d="M121 325c-1.72 2.26-4.65 5.07-2 8 7.47 5.42 15.73 9.07 23 15h4c.13-5.75 5.45-9.9 5-16 4.87-.35 5.02 6.6 8 9 .15-1.18-.43-2.06-1-3 0 0 .16-.56 0-1-2.89-4.29-4.51-9.47-6-14-1.18-.15-2.06.43-3 1-.77-7.26-9.28-11.12-10-19-8.57 3.66-11.9 13.95-18 20Z"/><path fill="none" fill-opacity="0" stroke="#F7746D" stroke-width=".3" d="M53 345c-1.7-4.31-6.12-6.83-8-11 0 0 .09-.52 0-1-6.96-6.65-10.25-16.67-16-24 6.04 12.96 14.02 25.44 24 36Z"/><path fill="none" fill-opacity="0" stroke="#DD63D0" stroke-width=".3" d="M203 332c5.81-2.43 9.83-8.85 10-15-1.02-18.47-14.05 9.54-16 16 2.04-.11 4.33.42 6-1m9-17c.2 6.07-3.29 14.23-10 15 3.11-4.94 2.77-13.96 10-15Z"/><path fill="none" fill-opacity="0" stroke="#F28171" stroke-width=".3" d="M399 331c4.72-2.45 5.3-8.59 10-11 0 0-.17-.57 0-1 1.35-2.69 2.63-5.31 4-8-.09-.89.87-1.2 1-2-5.02 6.93-10.73 14.5-15 22Z"/><path fill="none" fill-opacity="0" stroke="#BF88F3" stroke-width=".3" d="M212 315c-7.23 1.04-6.89 10.06-10 15 6.71-.77 10.2-8.93 10-15Z"/><path fill="none" fill-opacity="0" stroke="#FEF8A8" stroke-width=".3" d="M173 379c-29.35-6.98-56.5-24.06-78-46h-4c.22 3.55 4.64 4.89 6 8 2.07 3.94 7.08 4.92 9 9 30.02 22.7 65 38.27 103 40h25c21.21-1.75 41.29-8.22 61-15 15.55-9.19 32.06-17.64 46-30 4.85-5.66 10.37-11.22 16-16 1.57-2.96 3.97-5.27 6-8 .58-1.71 2.06-3.11 2-5-44.76 55.11-122.11 83.38-192 63Z"/><path fill="none" fill-opacity="0" stroke="#EF3669" stroke-width=".3" d="M159 323c9.04-2.51 10.88 11.61 19 14-1.33 1.47-5.74 1.71-7 0-.5-.03-1 0-1 0 .04 4.02 5.33 3.2 8 4-.68-2.34 2.87-1.86 3-4-6.96-1.81-11-7.85-11-15-3.48-2.31-7.79-2.25-11-5v6Z"/><path fill="none" fill-opacity="0" stroke="#DF6F95" stroke-width=".3" d="M399 331s.22.64 0 1c-2.49 4.18-6.01 8.13-10 11 0 0 .16.56 0 1-.3 1.25-1.83 1.71-2 3 3.73-2.72 5.73-7.68 10-10 2.19-2.23 3.14-5.55 6-7 3.32-2.2 3.81-6.8 6-10-4.7 2.41-5.28 8.55-10 11Z"/><path fill="none" fill-opacity="0" stroke="#FB2236" stroke-width=".3" d="M170 322c0 7.15 4.04 13.19 11 15-.13 2.14-3.68 1.66-3 4 5.88.23 11.76.19 17-2 .36-3.03-3.22-1.75-5-2 3.65-5.46-1.83-10.09 1-16-6.97.52-13.79 1.47-21 1Z"/><path fill="none" fill-opacity="0" stroke="#F8C743" stroke-width=".3" d="M95 333c21.5 21.94 48.65 39.02 78 46 4.08.17 7.74 1.61 12 1-37.28-7.73-71.79-28.76-98-58 2.23 4.06 4.94 7.85 8 11Z"/><path fill="none" fill-opacity="0" stroke="#F04D9C" stroke-width=".3" d="M159 323c-.04 1.54.89 3.16 2 4 3.58-4.33 9.58 6.86 14 9-.53 1.6-2.75.72-4 1 1.26 1.71 5.67 1.47 7 0-8.12-2.39-9.96-16.51-19-14Z"/><path fill="none" fill-opacity="0" stroke="#EEB62E" stroke-width=".3" d="M106 350c-1.92-4.08-6.93-5.06-9-9-6.55-4.48-10.2-11.99-16-17 6.24 10.37 15.37 18.44 25 26Z"/><path fill="none" fill-opacity="0" stroke="#E674CF" stroke-width=".3" d="M161 327c-.09 4.79 4.52 9.2 9 10 0 0 .5-.03 1 0 1.25-.28 3.47.6 4-1-4.42-2.14-10.42-13.33-14-9Z"/><path fill="none" fill-opacity="0" stroke="#F8C953" stroke-width=".3" d="M341 345c5.63-4.78 11.15-10.34 16-16-5.63 4.78-11.15 10.34-16 16Z"/><path fill="none" fill-opacity="0" stroke="#CD65BC" stroke-width=".3" d="M403 330c-2.86 1.45-3.81 4.77-6 7-77.87 120.11-271.87 125.09-350 4-3.74-3.41-5.1-9.16-10-11 72.87 136.07 294.85 137.02 366 0Z"/><path fill="none" fill-opacity="0" stroke="#FCB105" stroke-width=".3" d="M142 348c10.79 5.77 22.44 11.88 35 14-8.66-3.08-16.21-11.81-18-21-2.98-2.4-3.13-9.35-8-9 .45 6.1-4.87 10.25-5 16h-4Z"/><path fill="none" fill-opacity="0" stroke="#F17B6D" stroke-width=".3" d="M389 343c3.99-2.87 7.51-6.82 10-11-3.99 2.87-7.51 6.82-10 11Z"/><path fill="none" fill-opacity="0" stroke="#ED5D40" stroke-width=".3" d="M53 345v2c15.92 15.34 31.34 31.17 50 42-20.82-15.55-41.66-34.07-58-55 1.88 4.17 6.3 6.69 8 11Z"/><path fill="none" fill-opacity="0" stroke="#D44B91" stroke-width=".3" d="M387 347c-6.37 10.22-17.62 17.21-26 26 0 0-.68-.24-1 0-84.27 86.7-236.71 66.38-307-26v-1c-2.38-1.04-3.59-3.89-6-5 78.13 121.09 272.13 116.11 350-4-4.27 2.32-6.27 7.28-10 10Z"/><path fill="none" fill-opacity="0" stroke="#FFE930" stroke-width=".3" d="M284 344c1.02-9.46-8.56-2.53 0 0Z"/><path fill="none" fill-opacity="0" stroke="#E36462" stroke-width=".3" d="M361 373c8.38-8.79 19.63-15.78 26-26 .17-1.29 1.7-1.75 2-3-9.12 9.44-18.88 19.17-28 29Z"/><path fill="none" fill-opacity="0" stroke="#DD3E66" stroke-width=".3" d="M360 373c-3.11 1.78-5.51 5.16-9 6-15.5 13.83-33.7 24.2-53 31-54.82 25.54-126.65 21.52-178-10-3.46-2.08-7.48-3.9-10-7-2.82-.49-4.14-3.87-7-4-18.66-10.83-34.08-26.66-50-42 70.29 92.38 222.73 112.7 307 26Z"/><path fill="none" fill-opacity="0" stroke="#DE3D20" stroke-width=".3" d="M110 393c2.52 3.1 6.54 4.92 10 7 53.34 28.38 121.1 32.23 178 10 19.3-6.8 37.5-17.17 53-31-66.88 52.73-167.72 56.89-241 14Z"/><path fill="none" fill-opacity="0" stroke="#E78B2B" stroke-width=".3" d="M233 382h-27c7.85 1.68 19.08 1.65 27 0Z"/><path fill="none" fill-opacity="0" stroke="#E6AD3F" stroke-width=".3" d="M234 390h-25c7.19 1.68 17.74 1.64 25 0Z"/><path fill="none" fill-opacity="0" stroke="#E03343" stroke-width=".3" d="M298 410c-56.9 22.23-124.66 18.38-178-10 51.35 31.52 123.18 35.54 178 10Z"/><path fill="none" fill-opacity="0" stroke="None" d="M0 442h442V0H0v442M229 3c37.94-.48 73.28 12.04 105 31 1.33.99 3.57 1.05 4 3 28.5 16.83 54.65 42.14 71 71 1.82.6 2.15 2.56 3 4 25.13 41.3 32.26 92.57 24 141-1.95 11.09-3.99 22.84-8 33-3.12 12.06-7.71 24.37-14 35-71.59 166.73-347.63 149.74-398-25-6.87-19.91-12.04-40.46-13-62-1.66-11.59-1.67-26.48 0-38 2.92-44.62 21.66-86.76 52-120 6.85-8.17 15.46-14.54 23-22 15.17-11.4 30.41-23.32 48-30 2.14-1.83 5.11-3.41 8-4 .47-.11 1 0 1 0 1.49-1.47 3.78-2.74 6-3 1.14-.93 2.55-1.08 4-1 .84-1.11 2.46-2.04 4-2 20.01-7.23 40.99-11.28 63-11 4.59-1.62 12.48-1.7 17 0Z"/><path fill="#EEC0AE" fill-opacity=".06" stroke="None" d="M212 3h17c-4.52-1.7-12.41-1.62-17 0Z"/><path fill="#B1472F" fill-opacity=".93" stroke="None" d="M149 14c-.84 1.11-2.46 2.04-4 2-1.45-.08-2.86.07-4 1-1.49 1.47-3.78 2.74-6 3 0 0-.53-.11-1 0-2.14 1.83-5.11 3.41-8 4-17.59 6.68-32.83 18.6-48 30-6.75 8.34-15.31 14.77-23 22-30.34 33.24-49.08 75.38-52 120v17c1.06 1.11 1.84.48 3 0 1.28 8.19-2.59 20.23 2 26v-10c-1.64-6.92-1.68-17.15 0-24 .32-22.36 4.99-43.73 13-64 10.54-35.42 39.14-69.58 71-91 35.18-24.92 76.15-41.02 120-42 5.92-1.63 15.15-1.69 21 0 62.54 3.34 121.1 35.51 160 86 35.36 43.76 46.86 102.94 38 159-1.4 6.64-2.27 13.42-4 20 4.74-5.47 2.87-16.18 9-20 8.26-48.43 1.13-99.7-24-141-1.82-.6-2.15-2.56-3-4-16.35-28.86-42.5-54.17-71-71-1.33-.99-3.57-1.05-4-3-31.72-18.96-67.06-31.48-105-31h-17c-22.01-.28-42.99 3.77-63 11Z"/><path fill="#D48D2E" stroke="None" d="M212 8h21c-5.85-1.69-15.08-1.63-21 0Z"/><path fill="#FAE44D" stroke="None" d="M92 50c-6.18 5.26-12.9 10.35-19 16-4.85 5.66-10.37 11.22-16 16-8.9 11.73-19.03 22.56-25 36 1.29.44 2.21 1.58 2 3-2.63-.35-5.33 4.49-3 6C54.41 82.72 94.84 45.44 141 27c6.73-1.85 12.9-5.42 20-6 39.71-15.28 91.71-13.85 130 4 .49.06 1.5-.02 2 0 40.46 14.56 78.64 43.86 104 80 1.64-3.72-4.67-6.77-4-11-38.9-50.49-97.46-82.66-160-86h-21c-43.85.98-84.82 17.08-120 42Z"/><path fill="#FCF9A4" stroke="None" d="M161 21c41.19-12.12 89.94-11.39 130 4-38.29-17.85-90.29-19.28-130-4Z"/><path fill="#FEFEE2" stroke="None" d="M161 21c-7.1.58-13.27 4.15-20 6-32.94 17.16-69.08 39-89 72 35.94-44.52 87.7-75.51 144-82 29.11-.18 59.17-1.4 85 9 4.04-.3 7 3.09 11 3 37.03 12.09 69.66 39.63 96 67-23.56-32.63-59.89-54.53-95-71-.5-.02-1.51.06-2 0-40.06-15.39-88.81-16.12-130-4Z"/><path fill="#DEB0A9" fill-opacity=".34" stroke="None" d="M145 16c1.54.04 3.16-.89 4-2-1.54-.04-3.16.89-4 2Z"/><path fill="#E3AEA4" fill-opacity=".32" stroke="None" d="M135 20c2.22-.26 4.51-1.53 6-3-2.22.26-4.51 1.53-6 3Z"/><path fill="#FEFBA9" stroke="None" d="M141 27C94.84 45.44 54.41 82.72 31 127c-8.38 16.62-14.5 34.34-17 53 .56 2.91-1.53 7.58 2 9 .54-2.12 1.86-4.36 3-6 3.56-19.02 9.43-37.69 18-55 10.68-23.25 28.94-43 48-61 9.02-4.54 16.11-12.94 25-18 25.35-17.84 56.88-24.39 86-32-56.3 6.49-108.06 37.48-144 82 19.92-33 56.06-54.84 89-72Z"/><path fill="#FDF046" stroke="None" d="M110 49c6.99-2.98 12.33-7.61 20-4 .11-6.57 4.32-.77 9-2 1.39 4.08-5.38 2.85-4 7 4.27-4.71 7.42-2.56 12-3-29.46 16.37-68.16 37.66-80 71 11.62-14.63 25.71-31.6 42-43 6.58-5.58 14.76-8.49 21-14 35.52-29.3 105.79-34.86 154-16-2.84-3.48-8.79-2.3-12-6 1.21-5.68-.02-14.83 9-13-25.83-10.4-55.89-9.18-85-9-29.12 7.61-60.65 14.16-86 32Z"/><path fill="#E4ADA4" fill-opacity=".37" stroke="None" d="M126 24c2.89-.59 5.86-2.17 8-4-2.89.59-5.86 2.17-8 4Z"/><path fill="#FEFAA9" stroke="None" d="M292 29c18.96 9.75 39.74 18.7 56 33 2.09 1.32 3.6 3.29 6 4 26.23 20.22 43.76 48.16 57 77 7.59 12.89 10.35 28.36 14 43 2.86-5.33-.38-12.1 0-18-4.94-22.45-14.24-44.29-28-63-25.36-36.14-63.54-65.44-104-80 35.11 16.47 71.44 38.37 95 71-26.34-27.37-58.97-54.91-96-67Z"/><path fill="#FACF1B" stroke="None" d="M284 45c14.42 4.2 27.13 12.36 40 20-5.31-4.65-11.49-8.93-18-12 1.59-3.81 4.77-1.32 4-7 2.44-.26 4.52-1.76 7-2 4.42 3.76 22.03 10.58 31 18-16.26-14.3-37.04-23.25-56-33-4 .09-6.96-3.3-11-3-9.02-1.83-7.79 7.32-9 13 3.21 3.7 9.16 2.52 12 6Z"/><path fill="#FEF784" stroke="None" d="M130 61c63.09-36.89 148.26-29.84 205 16 1.14.93 2.55 1.08 4 1 .45-2.31-2.53-3.07-3-5-4.31-2.22-7.81-5.61-12-8-12.87-7.64-25.58-15.8-40-20-48.21-18.86-118.48-13.3-154 16Z"/><path fill="#E5B79A" fill-opacity=".28" stroke="None" d="M338 37c-.43-1.95-2.67-2.01-4-3 .43 1.95 2.67 2.01 4 3Z"/><path fill="#F9A613" stroke="None" d="M130 61c-6.24 5.51-14.42 8.42-21 14-12.88 10.6-18.12 23.91-30 36 61.27-80.31 187.93-91.55 261-23 5.48 4.02 9.56 10.03 15 14-6.77-6.56-7.2-13.81-14-20-2.35-1.02-4.85-2.58-6-5-56.74-45.84-141.91-52.89-205-16Z"/><path fill="#FDCD14" stroke="None" d="M110 49c-8.89 5.06-15.98 13.46-25 18-4.67 5.97-11.15 10.6-15 17 5.16-2.12 15.77-15.24 17-8 5.59.39 5.45-5.4 11-3-.72 4.05-3.79 1.44-6 4-8.2 18.24-35.71 41.06-46 64-2.95-.79-4.48-.65-6 2-8.79-12.04 4.23-24.23 11-35-6.65 5.11-9.25 13.72-14 20-8.57 17.31-14.44 35.98-18 55-.73 19.49-9.71 13.14-5-3 2.5-18.66 8.62-36.38 17-53-2.33-1.51.37-6.35 3-6 .21-1.42-.71-2.56-2-3-3.72 7.77-8.13 14.93-11 23-8.01 20.27-12.68 41.64-13 64v34c2.03 1.77.53 5.48 1 8 2.39.68 1.74 3.39 3 5 1.75-.83.66-3.44 1-5v-8c-2.31-8.76-.35-19.49-1-29 1.73 7.08 1.6 15.48 3 23 .58 11.12 4.62 21.32 7 32 44.72 183.32 328.81 196.79 391 18 7.19-19.31 12.77-39.25 15-60 2.18 7.17.89 16.42 0 24v9c1.27-.56 1.25-2.85 3-3 8.86-56.06-2.64-115.24-38-159-.67 4.23 5.64 7.28 4 11 13.76 18.71 23.06 40.55 28 63 3.47 10.5 5.5 23.47 3 35-8.01-17.41-7.52-41.56-17-60-13.24-28.84-30.77-56.78-57-77 23.95 22.23 47.24 50.48 53 80-5.43-1.2-9.64-15.07-12-4-4.68-3.91-5.14-11.27-10-15 11.68 40.74 25.2 92.93 8 138 3.96-2.53 1.54-10.3 7-11 7.33 11.12 8.61 29.93 2 42-33.17 70.96-110.02 117.77-189 113-71.72-2.18-172.26-51.54-164-136 2.22.49 1.74 3.57 4 4-22.84-53.6-16.14-122.86 23-167 1.68 2.97-3.37 5.55-3 9 2.44-2.11 4.56-5.03 6-8 11.88-12.09 17.12-25.4 30-36-16.29 11.4-30.38 28.37-42 43 11.84-33.34 50.54-54.63 80-71-4.58.44-7.73-1.71-12 3-1.38-4.15 5.39-2.92 4-7-4.68 1.23-8.89-4.57-9 2-7.67-3.61-13.01 1.02-20 4m312 163h-13c1.5-9.32 11.18-9.15 13 0m0 1c-.74 5.7-2.01 15.21-9 16-.8-5.49-4.86-10.05-4-16h13Z"/><path fill="#EF4304" stroke="None" d="M79 111c-1.44 2.97-3.56 5.89-6 8-19.77 30.49-30.36 66.19-28 104 1.26.08.56 2.06 2 2-.02-19.84-.91-40.71 7-58-8.54 29.41-7.58 64.29 2 94 25.4 75.43 103.89 128.33 184.67 117.67C317.76 372.07 381.96 301.96 395 231c.8-2.51 1.28-5.19 1-8v-23c-1.5-33.97-15.06-65.5-36-92-1.2-.67-2.58-1.64-3-3-5.99-5.18-11.89-11.04-17-17-73.07-68.55-199.73-57.31-261 23m280 16c10.03 13.5 15.1 29.59 21 45 52.02 167.34-203.86 276.66-294 130-26.73-30.64-37.12-72.98-28-113 2.35-15.32 7.39-30.11 14-44 3.62-7.79 7.51-15.33 13-22 61.93-93.95 214.72-91.62 274 4Z"/><path fill="#FCBC06" stroke="None" d="M324 65c4.19 2.39 7.69 5.78 12 8 19.1 15.42 36.64 33.23 49 54 4.86 3.73 5.32 11.09 10 15 2.36-11.07 6.57 2.8 12 4-5.76-29.52-29.05-57.77-53-80-2.4-.71-3.91-2.68-6-4-8.97-7.42-26.58-14.24-31-18-2.48.24-4.56 1.74-7 2 .77 5.68-2.41 3.19-4 7 6.51 3.07 12.69 7.35 18 12Z"/><path fill="#AD4A08" stroke="None" d="M21 141c2.87-8.07 7.28-15.23 11-23 5.97-13.44 16.1-24.27 25-36 4.85-5.66 10.37-11.22 16-16 6.1-5.65 12.82-10.74 19-16-31.86 21.42-60.46 55.58-71 91Z"/><path fill="#FB910B" stroke="None" d="M85 123c1.25.3 1.71 1.83 3 2 12.65-11.53 25.79-26.7 41-36 16.37-8.51 31.84-20.44 51-22 14.14-4.87 30.21-6.13 46-6 5.52.85 12.78-1.97 17 2 12.52.67 24.05 5.3 36 8 29.61 9.89 55.15 32.27 75 55 .87-2.2-5.13-2.98-2-5 2.41 1.54 4.42 4.49 7 6-59.28-95.62-212.07-97.95-274-4Z"/><path fill="#D09189" fill-opacity=".35" stroke="None" d="M55 76c7.69-7.23 16.25-13.66 23-22-7.54 7.46-16.15 13.83-23 22Z"/><path fill="#FDF040" stroke="None" d="M180 67c2.39.68 1.74 3.39 3 5 16.8.28 35.29 1.28 43-10-.45 16.75 26.14 6.48 37.02 13.98C274.61 77.17 287.84 94.52 296 80c-5.58-3.14-12-5.32-17-9-11.95-2.7-23.48-7.33-36-8-5.11-2.47-12.33.62-17-2-15.79-.13-31.86 1.13-46 6Z"/><path fill="#EDB814" stroke="None" d="M243 63c-4.22-3.97-11.48-1.15-17-2 4.67 2.62 11.89-.47 17 2Z"/><path fill="#FDF8A9" stroke="None" d="M180 67c-19.16 1.56-34.63 13.49-51 22-1.98 3.53-6.34 4.14-9 7-.66 1.93-3.39 2.67-3 5 3.45 2.05 5.58 6 9 8 10.47 6.87 15.72 16.18 13 29-16.38.7-24.36-17.41-38-24-1.57.96-3.25 2.32-4 4 5.09 8.8-7.95 25.1 9 25-8.34 7.68-12.81 17.47-13 29-8.15.15-14.88-4.96-23-5 3.01 7.66 15.66 5.81 23 8 1.69 5.48 3.17 13.24 9 12-.93-1.14-1.08-2.55-1-4-13.79-27.28 18.93-46.72 44-39-6.92-33.83 3.59-72.86 45-66 58.46-10.3 131.18 14.54 141 79 .9 6.26 1.87 12.52 2 19 0-.01 1 0 1 0 .82-17.5 28.03 4.89 32.99-10.01-3.58-18.93-18.9-4.95-28.99-.99-3.57-16.58-6.38-33.85-17.3-47.7-3.65-13.52-34.34-21.63-19.7-34.3-1.67-1.11-3.13-2.3-5-3-8.16 14.52-21.39-2.83-32.98-4.02-10.88-7.5-37.47 2.77-37.02-13.98-7.71 11.28-26.2 10.28-43 10-1.26-1.61-.61-4.32-3-5Z"/><path fill="#DA8E29" stroke="None" d="M57 82c5.63-4.78 11.15-10.34 16-16-5.63 4.78-11.15 10.34-16 16Z"/><path fill="#FCE663" stroke="None" d="M37 128c4.75-6.28 7.35-14.89 14-20 4.15-9.05 11.24-17.31 19-24 3.85-6.4 10.33-11.03 15-17-19.06 18-37.32 37.75-48 61Z"/><path fill="#F7B20D" stroke="None" d="M296 80c1.87.7 3.33 1.89 5 3 29.6 16.3 55.71 42.69 68 74 3.21 5.63 5.47 12.49 7 19 2.66-2.03-1-5.24 0-8 2.22.49 1.74 3.57 4 4-5.9-15.41-10.97-31.5-21-45-2.58-1.51-4.59-4.46-7-6-3.13 2.02 2.87 2.8 2 5-19.85-22.73-45.39-45.11-75-55 5 3.68 11.42 5.86 17 9Z"/><path fill="#FCBC03" stroke="None" d="M70 84c-7.76 6.69-14.85 14.95-19 24-6.77 10.77-19.79 22.96-11 35 1.52-2.65 3.05-2.79 6-2 10.29-22.94 37.8-45.76 46-64 2.21-2.56 5.28.05 6-4-5.55-2.4-5.41 3.39-11 3-1.23-7.24-11.84 5.88-17 8Z"/><path fill="#FDE54A" stroke="None" d="M335 77c1.15 2.42 3.65 3.98 6 5 7.02 6.12 14 13.26 20 20-5.22.74.63 3.91-1 6 20.94 26.5 34.5 58.03 36 92 1.64 6.59 1.68 16.48 0 23 .28 2.81-.2 5.49-1 8-7.91 79.76-82.24 147.97-162 151-7.92 1.65-19.15 1.68-27 0-7.03-.51-13.91-1.67-21-2-4.26.61-7.92-.83-12-1 69.89 20.38 147.24-7.89 192-63 .06 1.89-1.42 3.29-2 5 5.34-4.51 7.45-11.98 12-17 2.48-3.11 3.55-6.9 6-10 5-9.33 8.89-19 12-29 17.2-45.07 3.68-97.26-8-138-12.36-20.77-29.9-38.58-49-54 .47 1.93 3.45 2.69 3 5-1.45.08-2.86-.07-4-1Z"/><path fill="#BC3F1A" stroke="None" d="M101 183c1.99-5.89-3.72-12.7 0-19 3.72 2.36 3.29 7.77 5 11 .59-2.84-1.22-6.98 1-9 .11-1-.47-2.73 1-3 4.68-18.56 27.85-10.18 42-12h3c.67-16.5-1.33-34.32 1-50 18.42-27.13 67.05-15.1 97.02-14.02 28.15 4.42 56 24.68 65.98 52.02 2.78 2.8 2.8 7.33 4 11 1.62 4.33 2.08 9.89 2 15v8c2.26-7.61 1.01-17.28-1-25 1.93 2.66 5.98 2.76 5 7 2.28-3.93 1.31 1.45 4 2-9.82-64.46-82.54-89.3-141-79-41.41-6.86-51.92 32.17-45 66-25.07-7.72-57.79 11.72-44 39Z"/><path fill="#FBCA19" stroke="None" d="M355 102c.3 1.25 1.83 1.71 2 3 .42 1.36 1.8 2.33 3 3 1.63-2.09-4.22-5.26 1-6-6-6.74-12.98-13.88-20-20 6.8 6.19 7.23 13.44 14 20Z"/><path fill="#FDEF46" stroke="None" d="M334 176c.56 2.91-1.53 7.58 2 9 2.05-3.67 3.1-7.69 3-12 6.92 9.47 22.58-3.83 33-5-1.19-3.43-2.38-6.86-3-11-12.29-31.31-38.4-57.7-68-74-14.64 12.67 16.05 20.78 19.7 34.3 10.92 13.85 13.73 31.12 17.3 47.7 10.09-3.96 25.41-17.94 28.99.99-4.96 14.9-32.17-7.49-32.99 10.01Z"/><path fill="#F9D857" stroke="None" d="M154 101c-1.41 9.17 2.22 16.39 4 24 .66-8.17-1.33-17.66 1-25 27.37-19.49 73.95-13.7 106-5 25.67 6.82 45.8 32.07 52 57-.3-4.73-.31-8.23 0-13-9.98-27.34-37.83-47.6-65.98-52.02C221.05 85.9 172.42 73.87 154 101Z"/><path fill="#FEFEDA" stroke="None" d="M159 100c.67 10.83-1.33 22.99 1 33-12.25-47.67 40.41-43.01 72.67-41.67 28.69 1.39 59.77 15.92 73.33 42.67-2.36-18.73-25.1-31.32-41-39-32.05-8.7-78.63-14.49-106 5Z"/><path fill="#F07104" stroke="None" d="M357 105c-.17-1.29-1.7-1.75-2-3-5.44-3.97-9.52-9.98-15-14 5.11 5.96 11.01 11.82 17 17Z"/><path fill="#F7AD16" stroke="None" d="M85 123c-5.49 6.67-9.38 14.21-13 22 2.6-2.49 2.58.85 4 2 .69-2.66 2.94-5.29 5-7 4.24-7.72 10.21-15.34 16-22 .75-1.68 2.43-3.04 4-4 .67-1.2 1.64-2.58 3-3 5.61-4.26 10.29-10.68 16-15 2.66-2.86 7.02-3.47 9-7-15.21 9.3-28.35 24.47-41 36-1.29-.17-1.75-1.7-3-2Z"/><path fill="#FDF792" stroke="None" d="M159 100c-2.33 7.34-.34 16.83-1 25v8c2.3 6.76.36 15.49 1 23-16.07-1.74-49.8-11.34-47 16 .33 4.85 5.83 7.09 8 11 8.94 2.12 18.45 2.24 28 2h10c.61 37.93-1.26 76.48 1 114 .31 3.38 3.25 6.23 6 8-6.22-21.97-1.56-49.7-3-74-1.41-22.89 10.15-61.59-26-53-39.94.41-8.9-33.92 17-21h9c2.67-20.17-5.81-44.67 5.25-61.75 20.09-4.6 41.52-4.12 62.75-4.25 56-3.94 108.44 63.45 71 114-3.09 7.31-15.71 11.34-15 19 18.69-11.08 29.15-31.46 32-52 .22-7.48-.01-14.81-1-22-6.2-24.93-26.33-50.18-52-57 15.9 7.68 38.64 20.27 41 39-13.56-26.75-44.64-41.28-73.33-42.67-32.26-1.34-84.92-6-72.67 41.67-2.33-10.01-.33-22.17-1-33m-7 57c-11.93 4.22-28.35-5.88-38 6 5.18-14.3 27.06-6.88 38-6Z"/><path fill="#FDED36" stroke="None" d="M153 159c20.44 1.39 5.39-36.66 10-52 2.01 1.22 3.14 4.48 3 0 16.21 12.18 38.91-7.69 51 2 2.77-2.75 6.21-3.72 10-4 .12-4.22 1.41-8.16 3-12-21.23.13-42.66-.35-62.75 4.25-11.06 17.08-2.58 41.58-5.25 61.75h-9Z"/><path fill="#FDD70B" stroke="None" d="M153 159c-25.9-12.92-56.94 21.41-17 21 36.15-8.59 24.59 30.11 26 53 1.44 24.3-3.22 52.03 3 74 .13.8 1.09 1.11 1 2 12.28 6.75 31.29 3.22 36-11-.03-.5 0-1 0-1v-12c-1.18-13.88-2.24-29.46-1-43-1.39-.26-.78-2.05-1-3 18.71-2.38 39.8 1.39 57-5-9.98-3.3 3.95-21.29 2-31-19.43 12.87-43.8 10.87-67 11 .3-2.46 3.31-1.18 4-3 4.85-20.19 3.67-55.31 5-82 0-.5.23-1.65 0-2-1.93-1.26-3.91-3-5-5 1.76-7.65 37.62-4.41 51.02-1.02 34.25 8.16 46.2 55.72 17.98 78.02-.47 11.3 1.16 24.99-2 34 15.02-4.09 26.93-14.8 38-26 37.44-50.55-15-117.94-71-114-1.59 3.84-2.88 7.78-3 12-3.79.28-7.23 1.25-10 4-12.09-9.69-34.79 10.18-51-2 .14 4.48-.99 1.22-3 0-4.61 15.34 10.44 53.39-10 52Z"/><path fill="#FBDA1E" stroke="None" d="M104 111c12.79 4.87 19.75 23.59 34 26 3.13-12.22-3.57-20.49-12-28-3.42-2-5.55-5.95-9-8-.39-2.33 2.34-3.07 3-5-5.71 4.32-10.39 10.74-16 15Z"/><path fill="#FAC031" stroke="None" d="M150 151c2.18 1.8 4.73 4.34 8 4v-30c-1.78-7.61-5.41-14.83-4-24-2.33 15.68-.33 33.5-1 50h-3Z"/><path fill="#E3AD9F" fill-opacity=".29" stroke="None" d="M412 112c-.85-1.44-1.18-3.4-3-4 .85 1.44 1.18 3.4 3 4Z"/><path fill="#FDF76C" stroke="None" d="M104 111c-1.36.42-2.33 1.8-3 3 13.64 6.59 21.62 24.7 38 24 2.72-12.82-2.53-22.13-13-29 8.43 7.51 15.13 15.78 12 28-14.25-2.41-21.21-21.13-34-26Z"/><path fill="#FEE84D" stroke="None" d="M53 277c6.11 17.3 17.2 32.19 28 47 5.8 5.01 9.45 12.52 16 17-1.36-3.11-5.78-4.45-6-8h4c-3.06-3.15-5.77-6.94-8-11-16-20.17-29.74-42.24-36-67-2.89-10.4-5.3-20.99-6-32-2.36-37.81 8.23-73.51 28-104-.37-3.45 4.68-6.03 3-9-39.14 44.14-45.84 113.4-23 167Z"/><path fill="#FDEC3C" stroke="None" d="M81 140c-6.06 11.22-11.61 22.74-14.98 35.02C56.96 194.18 86.19 185.26 96 189c-17.22 2.65-44.38-2.46-35 27 15.15-1 30.21-5.1 44-8-1.09-6.98-.38-14.41-3-21-5.83 1.24-7.31-6.52-9-12-7.34-2.19-19.99-.34-23-8 8.12.04 14.85 5.15 23 5 .19-11.53 4.66-21.32 13-29-16.95.1-3.91-16.2-9-25-5.79 6.66-11.76 14.28-16 22Z"/><path fill="#FEF896" stroke="None" d="M196 122c19.27 1.61 41.79-4.38 58 6 8.54 2.56 14.57 11.32 18 19 22.05 45.06-38.21 71.73-76 64-.69 1.82-3.7.54-4 3 23.2-.13 47.57 1.87 67-11 2.75.27 3.68-3.29 6-4 28.22-22.3 16.27-69.86-17.98-78.02-13.4-3.39-49.26-6.63-51.02 1.02Z"/><path fill="#EDB135" stroke="None" d="M201 127c-.55-1.46-2.4-2.18-2-4 19.17.11 37.78-.5 55 5-16.21-10.38-38.73-4.39-58-6 1.09 2 3.07 3.74 5 5Z"/><path fill="#FA9A19" stroke="None" d="M201 127c.23.35 0 1.5 0 2 .34.23 1 0 1 0 8.25-3.95 24.15-2.03 34-1 34.62-1.17 47.91 48.09 21 67 18.71-7.02 19.79-30.69 15-48-3.43-7.68-9.46-16.44-18-19-17.22-5.5-35.83-4.89-55-5-.4 1.82 1.45 2.54 2 4Z"/><path fill="#DC5D16" stroke="None" d="M202 129c-.18.74.05 1.91 1 2v-3h33c-9.85-1.03-25.75-2.95-34 1Z"/><path fill="#BC1C12" stroke="None" d="M203 131c-1.2 24.53 2.48 50.32-2 74h21c12.68.41 24.34-4.14 35-10 26.91-18.91 13.62-68.17-21-67h-33v3m10 67c-11.44-13.23-1.84-45.39-5-66 11.47 14.19 1.81 45.28 5 66m26-65c1.28.28 3.5-.76 4 1 4.14.15 7.59 2.92 11 5 1.93 1.26 3.91 3 5 5 1.29.44 2.21 1.58 2 3 .16.27.76.73 1 1 5.39 6.69 3.53 15.84 3 24-1.92.51-2.23-1.84-3-3-8.91-15.02-26.06-20.74-43-19-6.23-14.56 6.75-22.99 20-17m20 49c-.26.23-.79.73-1 1-6.64 9.54-18.22 12.73-29 14-4.38 2.62-13.78 1.63-11-6 .71-14.07-5.69-41.8 17-33 10.4 1.54 28.13 12.82 24 24Z"/><path fill="#F8B725" stroke="None" d="M196 211c37.79 7.73 98.05-18.94 76-64 4.79 17.31 3.71 40.98-15 48-10.66 5.86-22.32 10.41-35 10-5.92 1.63-15.15 1.69-21 0 4.48-23.68.8-49.47 2-74-.95-.09-1.18-1.26-1-2 0 0-.66.23-1 0-1.33 26.69-.15 61.81-5 82Z"/><path fill="#F92316" stroke="None" d="M213 198c-3.19-20.72 6.47-51.81-5-66 3.16 20.61-6.44 52.77 5 66Z"/><path fill="#FA3015" stroke="None" d="M219 150c4.52-8.62 26.52 1.25 24-15-1.41-.15-3.34-.65-4-2-13.25-5.99-26.23 2.44-20 17Z"/><path fill="#FBDB59" stroke="None" d="M150 151c-14.15 1.82-37.32-6.56-42 12 1.14 1.07-.71 4.05 0 6 2.72-2.42 2.48 2.2 4 3-2.8-27.34 30.93-17.74 47-16-.64-7.51 1.3-16.24-1-23v22c-3.27.34-5.82-2.2-8-4Z"/><path fill="#FB7218" stroke="None" d="M219 150c16.94-1.74 34.09 3.98 43 19 4.01-4.14-2.66-13.84 0-21-.24-.27-.84-.73-1-1-1.57 4.4-2.5 9.04-2 14-2.22.05-3.99-2.29-5-4-.25-.25-1 0-1 0-2.9-3.33-12.53-5.1-10-10 2.5-3.72 3.22-9.5 0-13-.5-1.76-2.72-.72-4-1 .66 1.35 2.59 1.85 4 2 2.52 16.25-19.48 6.38-24 15Z"/><path fill="#FDE44C" stroke="None" d="M243 147c-.17.43-.22 1.62 0 2 5.07.1 7.59 5.78 12 7-1.11-6.53 6.43-12.24-1-17-3.41-2.08-6.86-4.85-11-5 3.22 3.5 2.5 9.28 0 13Z"/><path fill="#FBB324" stroke="None" d="M243 149c3.1 2.56 8.03 3.81 10 8 0 0 .75-.25 1 0 1.25.3 1.71 1.83 3 2-1.26-5.84 4.09-9.43 2-15-1.09-2-3.07-3.74-5-5 7.43 4.76-.11 10.47 1 17-4.41-1.22-6.93-6.9-12-7Z"/><path fill="#F4B327" stroke="None" d="M317 152c.99 7.19 1.22 14.52 1 22 2.02-7.37.13-16.55 3-24-1.2-3.67-1.22-8.2-4-11-.31 4.77-.3 8.27 0 13Z"/><path fill="#FDCC10" stroke="None" d="M72 145c-6.61 13.89-11.65 28.68-14 44-1.54 10.43-2.32 21.09-2 32 1.58-6.36 1.46-14.03 2-21 .55 29.21 4.44 60.21 21 84 6.06-3.14 11.13-8.48 18-10-2.54 3.3-5.69 6.56-9 9-1.68 2.66-4.12 4.91-7 6 8.95 16.76 24.37 31.34 38 44-2.65-2.93.28-5.74 2-8 4.44-9.25 11.33-17.03 18-25v-65c1.83-.23 3.47.07 5 1-15.75-.79-36.28-5.53-39-26-.08-.49-.02-1.5 0-2-13.79 2.9-28.85 7-44 8-9.38-29.46 17.78-24.35 35-27-9.81-3.74-39.04 5.18-29.98-13.98 3.37-12.28 8.92-23.8 14.98-35.02-2.06 1.71-4.31 4.34-5 7-1.42-1.15-1.4-4.49-4-2m65 104c.95 26.1-28.58 39.41-44 57-7.69-6.31-1.36-16.69-5-20 13.01-5.52 20.94-27 36-22 .23-2.88-4.11-3.79-3-7 5.62-1.77 9.42-8.54 16-8Z"/><path fill="#FEF474" stroke="None" d="M425 168c-.38 5.9 2.86 12.67 0 18-3.65-14.64-6.41-30.11-14-43 9.48 18.44 8.99 42.59 17 60 2.5-11.53.47-24.5-3-35Z"/><path fill="#FE971D" stroke="None" d="M254 157c1.01 1.71 2.78 4.05 5 4-.5-4.96.43-9.6 2-14 .21-1.42-.71-2.56-2-3 2.09 5.57-3.26 9.16-2 15-1.29-.17-1.75-1.7-3-2Z"/><path fill="#F49110" stroke="None" d="M253 157c-1.97-4.19-6.9-5.44-10-8-.22-.38-.17-1.57 0-2-2.53 4.9 7.1 6.67 10 10Z"/><path fill="#F74B1D" stroke="None" d="M262 169c.77 1.16 1.08 3.51 3 3 .53-8.16 2.39-17.31-3-24-2.66 7.16 4.01 16.86 0 21Z"/><path fill="#B7141A" stroke="None" d="M323 173c-2.68 44.59-47.61 75.08-90 74-51.5-13.5-9.25 53.81-41 68-14.88 5.84-37.89.74-39-18-2.33-34.43-.33-70.82-1-106-8.17-.66-17.66 1.33-25-1-9.88 1.62-19.03-5.65-21-15-1.71-3.23-1.28-8.64-5-11-3.72 6.3 1.99 13.11 0 19-.08 1.45.07 2.86 1 4 2.62 6.59 1.91 14.02 3 21-.02.5-.08 1.51 0 2 3.85 5 8.1 11.86 15 13h25v13c1.45 26.49-4.31 55.02 6 79 2.03 1.77.53 5.48 1 8 1.49 4.53 3.11 9.71 6 14 37.94 39.08 79.06-18.06 63-59 15.35.26 32.24 3.38 46-3-17.06 6.75-56.68-11.13-47 22 20.42 46.88-64.37 70.84-62 26 1.42-4.97-1.71-4.96-3-7 1.28.28 3.5-.76 4 1 3.21 2.75 7.52 2.69 11 5 7.21.47 14.03-.48 21-1 8.97-4.79 19.58-13.22 18-25v-43c11.04 4.83 2.12 27.86 5 40 2.43-11.48.76-25.53 3-37 .89 4.52 1.56 9.8 2 15 8.38 1.48 19.04 1.8 27 0h-23c-11.07-25.55 29.09-15.89 44-24 3.06-1.27 5.71-3.45 9-4 3.71-1.98 7.62-3.46 11-6 10.61-6.25 18.77-18.57 28-27 4.46-7.62 7.73-15.54 10-24 2.61 5.61.15 12.89 0 19-.95 4.92-.51 10.86-3 15 .23.35 0 1 0 1 .94 27.42-29.99 44.66-54 54 27.58-5.06 53.11-27.31 61-54 1.9-7.76 2.38-16.55 4-24v-21c-.13-6.48-1.1-12.74-2-19-2.69-.55-1.72-5.93-4-2 .98-4.24-3.07-4.34-5-7 2.01 7.72 3.26 17.39 1 25m-197 43c-6.6-.72-13.81-5.75-14-13-1.87-1.14-.61-4.13-1-6-1.96-1.45-.56-4.8-1-7 10.48 6.81 23.54 4.83 36 5 4.13 16.15-3.21 28.12-20 21Z"/><path fill="#F19A1A" stroke="None" d="M318 174c-2.85 20.54-13.31 40.92-32 52-5.95 5.93-15.31 6.83-22 11 34.23-5.1 55.42-42.25 59-72 .08-5.11-.38-10.67-2-15-2.87 7.45-.98 16.63-3 24Z"/><path fill="#FEFEC7" stroke="None" d="M152 157c-10.94-.88-32.82-8.3-38 6 9.65-11.88 26.07-1.78 38-6Z"/><path fill="#FA8E1C" stroke="None" d="M218 191c0 .05 1 0 1 0 1.33-11.8-5.8-38.03 13.67-30.67 11.57 1.89 21.7 8.42 26.33 18.67v3c4.13-11.18-13.6-22.46-24-24-22.69-8.8-16.29 18.93-17 33Z"/><path fill="#FDDC23" stroke="None" d="M334 176s-1-.01-1 0v11c12.23 12.18 5.12 31.13 4 47 12.76 5.48 35.13 5.36 40 19-3.53 7.76-5.94 16.39-10 24-11.81-2.86-20.29-13.76-31-19 8.27 12.08 39.22 23.13 19 38-1.89 2.14-2.14 4.86-4 7-7.17 10.58-18.15 18.26-26 28-7.71-5.28-11.74-16.24-20-22 3.19 9.27 12.15 16 16 25-15.13 10.14-30.94 19.43-48.22 25.78-17.2-1.8-13.48-35.66-21.78-50.78-1.42 6.97 3.59 15.29 4 23 2.9 10.27 5.6 20.63 8 31-20.09 4.93-43.38 5.1-64 3-7.39-1.08-14.79-2.13-22-4-12.56-2.12-24.21-8.23-35-14-7.27-5.93-15.53-9.58-23-15-13.63-12.66-29.05-27.24-38-44 2.88-1.09 5.32-3.34 7-6-3.01 3.67-13.21 8.44-9 1-16.56-23.79-20.45-54.79-21-84-.54 6.97-.42 14.64-2 21 2.1 29.38 12.97 57.19 30 81 90.14 146.66 346.02 37.34 294-130-2.26-.43-1.78-3.51-4-4-1 2.76 2.66 5.97 0 8-1.53-6.51-3.79-13.37-7-19 .62 4.14 1.81 7.57 3 11-10.42 1.17-26.08 14.47-33 5 .1 4.31-.95 8.33-3 12-3.53-1.42-1.44-6.09-2-9Z"/><path fill="#FBB508" stroke="None" d="M219 191h5v-26c10.65-1.1 22.67 2.5 28 12 2.73-.49 5.02.3 7 2-4.63-10.25-14.76-16.78-26.33-18.67C213.2 152.97 220.33 179.2 219 191Z"/><path fill="#F6AB26" stroke="None" d="M107 166v10c5.17-.62 8.41 5.24 13 7-2.17-3.91-7.67-6.15-8-11-1.52-.8-1.28-5.42-4-3-.71-1.95 1.14-4.93 0-6-1.47.27-.89 2-1 3Z"/><path fill="#FCE734" stroke="None" d="M219 191c.25.25 0 1 0 1 4.84.39 9.05-1.74 14-1-1.25-8.16-2.63-16.35-2-25 8.54.75 19.28 5.72 21 15 2.38-2.52 3.98 1.24 6 2 .21-.27.74-.77 1-1v-3c-1.98-1.7-4.27-2.49-7-2-5.33-9.5-17.35-13.1-28-12v26h-5Z"/><path fill="#F88211" stroke="None" d="M264 237c-8.3 1.71-16.48 4.01-25 5-11.76 2.32-25.49.34-38 1 2.31 13.5.35 28.08 1 42v12c2.33-16.43.34-34.82 1-52 9.12 4 20.07 1.13 30 2 42.39 1.08 87.32-29.41 90-74v-8c-3.58 29.75-24.77 66.9-59 72Z"/><path fill="#F88215" stroke="None" d="M106 175c1.97 9.35 11.12 16.62 21 15 8.59.62 17.85-1.27 26 1-.52-2.14 2.57-2.81 2-5-2.19-.52-5.62 1.14-7-1-9.55.24-19.06.12-28-2-4.59-1.76-7.83-7.62-13-7v-10c-2.22 2.02-.41 6.16-1 9Z"/><path fill="#FDF97B" stroke="None" d="M219 192v5h10c10.78-1.27 22.36-4.46 29-14-2.02-.76-3.62-4.52-6-2-1.72-9.28-12.46-14.25-21-15-.63 8.65.75 16.84 2 25-4.95-.74-9.16 1.39-14 1Z"/><path fill="#D43502" stroke="None" d="M45 223c.7 11.01 3.11 21.6 6 32 3.53-2.25 2.29 5.07 5 6-9.58-29.71-10.54-64.59-2-94-7.91 17.29-7.02 38.16-7 58-1.44.06-.74-1.92-2-2Z"/><path fill="#FEEF66" stroke="None" d="M19 183c-1.14 1.64-2.46 3.88-3 6-3.53-1.42-1.44-6.09-2-9-4.71 16.14 4.27 22.49 5 3Z"/><path fill="#FBA819" stroke="None" d="M153 191v97c1.99 7.26 5.09 17.41 13 21 .09-.89-.87-1.2-1-2-2.75-1.77-5.69-4.62-6-8-5.95-36.12 1.94-78.46-4-114h-7c1.38 2.14 4.81.48 7 1 .57 2.19-2.52 2.86-2 5Z"/><path fill="#E3B330" stroke="None" d="M159 299c-2.26-37.52-.39-76.07-1-114h-3c5.94 35.54-1.95 77.88 4 114Z"/><path fill="#F32854" stroke="None" d="M315 210c3.43-1.45 6.16-7.21 10-5 .15-6.11 2.61-13.39 0-19-2.27 8.46-5.54 16.38-10 24Z"/><path fill="#FDB002" stroke="None" d="M333 197c4.78 3.15 3.4 12.31 2 17 .38 6.12-3.99 10.91-4 17 .42 8.43.95 13.58-2 21-6.02 19.81-24.81 33.59-42 43 12.82-3.6 21.85-15.07 33-21 6.37 12.9 20.36 19.2 27 32 1.66-.54 2.33-2.56 4-3 1.86-2.14 2.11-4.86 4-7 1.27-4.12 2.37-6.92 4-11-2.82-9.4-16.3-15.29-22-24-3.39.95-5.65-1.15-8-3 1.14-7.26 4.06-14.11 6-21 14.44 2.28 28.59 18.83 42 16-4.87-13.64-27.24-13.52-40-19 1.12-15.87 8.23-34.82-4-47v10Z"/><path fill="#EA6C03" stroke="None" d="M86 302c-17.03-23.81-27.9-51.62-30-81-.32-10.91.46-21.57 2-32-9.12 40.02 1.27 82.36 28 113Z"/><path fill="#F4191A" stroke="None" d="M111 197c.39-1.57-.94-4.22 1-5 4.99 14.22 16.9 23.28 33 21-.82 6.17-11.2 1.59-16 3h-3c16.79 7.12 24.13-4.85 20-21-12.46-.17-25.52 1.81-36-5 .44 2.2-.96 5.55 1 7Z"/><path fill="#DF611B" stroke="None" d="M153 297V191c-8.15-2.27-17.41-.38-26-1 7.34 2.33 16.83.34 25 1 .67 35.18-1.33 71.57 1 106Z"/><path fill="#FCBD7B" stroke="None" d="M229 197h-10v-5s.25-.75 0-1c0 0-1 .05-1 0-2.78 7.63 6.62 8.62 11 6Z"/><path fill="#FC5F1B" stroke="None" d="M111 197c.39 1.87-.87 4.86 1 6 2.71.03 13.2 11.88 17 13 4.8-1.41 15.18 3.17 16-3-16.1 2.28-28.01-6.78-33-21-1.94.78-.61 3.43-1 5Z"/><path fill="#A36059" fill-opacity=".51" stroke="None" d="M3 234v-38c-1.67 11.52-1.66 26.41 0 38Z"/><path fill="#FC7804" stroke="None" d="M329 221c-.98 41.53-46.75 64.68-84 66-.38 3.61.46 6.89 2 10-5.02 2.82-12.39-.86-17 2 14.71.73 28.07-3.53 43-2 5.09.9 9.29-1.34 14-2 17.19-9.41 35.98-23.19 42-43-1.08-1.75-2.12-4.22-5-4 3.21-5.32 2.94-12.36 7-17 .01-6.09 4.38-10.88 4-17-.58-5.66-3-10.9-2-17-1.62 7.45-2.1 16.24-4 24Z"/><path fill="#FD9707" stroke="None" d="M335 214c1.4-4.69 2.78-13.85-2-17-1 6.1 1.42 11.34 2 17Z"/><path fill="#FBC004" stroke="None" d="M259 203c1.95 9.71-11.98 27.7-2 31 2.27.59 3.9-.85 6-1 3.16-9.01 1.53-22.7 2-34-2.32.71-3.25 4.27-6 4Z"/><path fill="#F69728" stroke="None" d="M396 223c1.68-6.52 1.64-16.41 0-23v23Z"/><path fill="#FB992D" stroke="None" d="M112 203c.19 7.25 7.4 12.28 14 13h3c-3.8-1.12-14.29-12.97-17-13Z"/><path fill="#ED3B95" stroke="None" d="M315 210c-8.12 9.95-16.2 21.4-28 27-6.98 6.76-13.48 14.28-18 23 4.02 2.11 8.05.05 12-1 .49-.06 1.59.19 2 0 .3-1.25 1.83-1.71 2-3-2.17 1.22-4.34 2.42-7 2-1.4 1.21-3.26.98-5 1 12.77-17 30.17-36.51 49-47 .13 2.75-2.2 5.44 0 8 2.49-4.14 2.05-10.08 3-15-3.84-2.21-6.57 3.55-10 5Z"/><path fill="#FEFAAE" stroke="None" d="M422 212c-1.82-9.15-11.5-9.32-13 0h13Z"/><path fill="#D57E10" stroke="None" d="M8 229v-24c-1.68 6.85-1.64 17.08 0 24Z"/><path fill="#C95603" stroke="None" d="M222 205h-21c5.85 1.69 15.08 1.63 21 0Z"/><path fill="#FEF15A" stroke="None" d="M263 233c-2.1.15-3.73 1.59-6 1-17.2 6.39-38.29 2.62-57 5 .22.95-.39 2.74 1 3h38c8.52-.99 16.7-3.29 25-5 6.69-4.17 16.05-5.07 22-11-.71-7.66 11.91-11.69 15-19-11.07 11.2-22.98 21.91-38 26Z"/><path fill="#EFA302" stroke="None" d="M13 239v-9c1.67.24.17 2.85 2 3-1.4-7.52-1.27-15.92-3-23 .65 9.51-1.31 20.24 1 29Z"/><path fill="#FB9D0D" stroke="None" d="M144 236c.34.23 1 0 1 0v-2c-2.03-1.77-.53-5.48-1-8-5.83-.66-12.99 1.32-18-1-1.83-.91-4.74-.34-6-2-6.9-1.14-11.15-8-15-13 2.72 20.47 23.25 25.21 39 26Z"/><path fill="#C60D45" stroke="None" d="M287 237c11.8-5.6 19.88-17.05 28-27-9.23 8.43-17.39 20.75-28 27Z"/><path fill="#D850CC" stroke="None" d="M278 258c11.91-15.47 26.83-30.44 42-42 .38 6.07-3.56 10.86-6 16 4.21-2.22 4.51-7.82 7-11 .18-.24 1 0 1 0s.23-.65 0-1c-2.2-2.56.13-5.25 0-8-18.83 10.49-36.23 30-49 47 1.74-.02 3.6.21 5-1Z"/><path fill="#9D3236" fill-opacity=".93" stroke="None" d="M3 234c.96 21.54 6.13 42.09 13 62 5.81-.79 5.1 7.01 9 9-.97-1.91-1.59-3.9-2-6-2.73-5.43-4.24-11.24-6-17-.99-2.24-2.02-4.46-2-7-2.47-9.2-3.97-18.66-6-28-.47-2.52 1.03-6.23-1-8-4.59-5.77-.72-17.81-2-26-1.16.48-1.94 1.11-3 0v21Z"/><path fill="#FAAF04" stroke="None" d="M422 213h-13c-.86 5.95 3.2 10.51 4 16 6.99-.79 8.26-10.3 9-16Z"/><path fill="#C07CEB" stroke="None" d="M278 258c2.66.42 4.83-.78 7-2 1.05-1.37 3.44-.23 4-2h-4c8.65-9.8 17.67-22.59 30-27-3.15 7.82-10.06 13.3-15 20 5.4-4.25 9.22-10.12 14-15 2.44-5.14 6.38-9.93 6-16-15.17 11.56-30.09 26.53-42 42Z"/><path fill="#D5498B" stroke="None" d="M314 232c-4.78 4.88-8.6 10.75-14 15-1.55 1.55-4.17 1.83-5 4 8.86-3.52 14.22-13.47 22-19 .96-3.82 3.9-6.94 4-11-2.49 3.18-2.79 8.78-7 11Z"/><path fill="#A8022E" stroke="None" d="M317 232c-6.7 10.34-15.92 19.74-27 25-7.45 4.55-15.23 8.99-24 10-1.94.91-3.68 2.33-6 2-4.71.41-9.04 2.46-14 2-7.96 1.8-18.62 1.48-27 0-.44-5.2-1.11-10.48-2-15-2.24 11.47-.57 25.52-3 37v24c.33 10.95-9.22 19.26-19 22-5.24 2.19-11.12 2.23-17 2-2.67-.8-7.96.02-8-4-4.48-.8-9.09-5.21-9-10-1.11-.84-2.04-2.46-2-4v-6c-.5-1.76-2.72-.72-4-1 1.29 2.04 4.42 2.03 3 7-2.37 44.84 82.42 20.88 62-26-9.68-33.13 29.94-15.25 47-22 .3-.24 1 0 1 0 24.01-9.34 54.94-26.58 54-54 0 0-.82-.24-1 0-.1 4.06-3.04 7.18-4 11Z"/><path fill="#EC3009" stroke="None" d="M268 275s-.7-.24-1 0c-13.76 6.38-30.65 3.26-46 3 16.06 40.94-25.06 98.08-63 59 .16.44 0 1 0 1 22.42 44.76 84.62 1.16 68-41 2.28-.85 2.59 1.15 4 2 4.61-2.86 11.98.82 17-2-1.54-3.11-2.38-6.39-2-10 37.25-1.32 83.02-24.47 84-66-7.89 26.69-33.42 48.94-61 54Z"/><path fill="#E2420D" stroke="None" d="M126 225c6.27.57 13.16-1.2 19 1v-3h-25c1.26 1.66 4.17 1.09 6 2Z"/><path fill="#EE7401" stroke="None" d="M413 283c5.76-6.62 6.91-16.73 10-25 2.15 3.58-2.35 8.46-1 13 3.78-7.04 3.38-16.69 6-24 .89-7.58 2.18-16.83 0-24-2.23 20.75-7.81 40.69-15 60Z"/><path fill="#F67412" stroke="None" d="M145 234v-8c-5.84-2.2-12.73-.43-19-1 5.01 2.32 12.17.34 18 1 .47 2.52-1.03 6.23 1 8Z"/><path fill="#ACAAF3" stroke="None" d="M289 254c2.28-.55 3.59-2.99 6-3 .83-2.17 3.45-2.45 5-4 4.94-6.7 11.85-12.18 15-20-12.33 4.41-21.35 17.2-30 27h4Z"/><path fill="#FB7819" stroke="None" d="M13 239v8c2.54 11.64 5.21 24.09 8 36-3.52-.46-2.33-6.78-6-8-.02 2.54 1.01 4.76 2 7 7.59 7.72 7.13 22.44 17 28-1.48 8.57 8.54 14.98 11 23 .09.48 0 1 0 1 16.34 20.93 37.18 39.45 58 55 2.86.13 4.18 3.51 7 4 73.28 42.89 174.12 38.73 241-14 3.49-.84 5.89-4.22 9-6 .32-.24 1 0 1 0 9.12-9.83 18.88-19.56 28-29 .16-.44 0-1 0-1 2.49-4.18 6.01-8.13 10-11 .22-.36 0-1 0-1 4.27-7.5 9.98-15.07 15-22 1.94-4.72 3.83-9.36 6-14-5.52 2.89-4.13 10.75-9 14-2.54-6.28 5.73-9.57 4-16-67.88 181.67-369.57 155.46-397-36 .37 2.88 1.67 6.26 4 8-2.38-10.68-6.42-20.88-7-32-1.83-.15-.33-2.76-2-3v9Z"/><path fill="#FD9703" stroke="None" d="M329 252c2.95-7.42 2.42-12.57 2-21-4.06 4.64-3.79 11.68-7 17 2.88-.22 3.92 2.25 5 4Z"/><path fill="#B22605" stroke="None" d="M56 261c-2.71-.93-1.47-8.25-5-6 6.26 24.76 20 46.83 36 67 26.21 29.24 60.72 50.27 98 58 7.09.33 13.97 1.49 21 2h27c79.76-3.03 154.09-71.24 162-151-13.04 70.96-77.24 141.07-154.33 147.67C159.89 389.33 81.4 336.43 56 261Z"/><path fill="#E53668" stroke="None" d="M295 251c-2.41.01-3.72 2.45-6 3-.56 1.77-2.95.63-4 2-.17 1.29-1.7 1.75-2 3 1.96-1.29 4.88-4.94 7-2 11.08-5.26 20.3-14.66 27-25-7.78 5.53-13.14 15.48-22 19Z"/><path fill="#FEEE67" stroke="None" d="M139 300c1.32 7.92 7 14.25 11 21 1.87-1.14.61-4.13 1-6-10.31-23.98-4.55-52.51-6-79 0 0-.66.23-1 0-1.53-.93-3.17-1.23-5-1v65Z"/><path fill="#F8306C" stroke="None" d="M276 243c-10.72 10.1-15.23 27.74 5 16-3.95 1.05-7.98 3.11-12 1 4.52-8.72 11.02-16.24 18-23-3.38 2.54-7.29 4.02-11 6Z"/><path fill="#FCC804" stroke="None" d="M355 296c20.22-14.87-10.73-25.92-19-38 10.71 5.24 19.19 16.14 31 19 4.06-7.61 6.47-16.24 10-24-13.41 2.83-27.56-13.72-42-16-1.94 6.89-4.86 13.74-6 21 2.35 1.85 4.61 3.95 8 3 5.7 8.71 19.18 14.6 22 24-1.63 4.08-2.73 6.88-4 11Z"/><path fill="#FBBF2D" stroke="None" d="M202 285c-.65-13.92 1.31-28.5-1-42 12.51-.66 26.24 1.32 38-1h-38c-1.24 13.54-.18 29.12 1 43Z"/><path fill="#F92A4A" stroke="None" d="M267 247c-3.08 6.35-5.65 10.22-8 17 2.18 1.97 8.66-.11 7 3 8.77-1.01 16.55-5.45 24-10-2.12-2.94-5.04.71-7 2-.41.19-1.51-.06-2 0-20.23 11.74-15.72-5.9-5-16-3.29.55-5.94 2.73-9 4Z"/><path fill="#ED4D15" stroke="None" d="M202 297s-.03.5 0 1c.33 7.24-4.02 13.93-10 17 31.75-14.19-10.5-81.5 41-68-9.93-.87-20.88 2-30-2-.66 17.18 1.33 35.57-1 52Z"/><path fill="#FBA120" stroke="None" d="M15 275c3.67 1.22 2.48 7.54 6 8-2.79-11.91-5.46-24.36-8-36-.34 1.56.75 4.17-1 5-1.26-1.61-.61-4.32-3-5 2.03 9.34 3.53 18.8 6 28Z"/><path fill="#F81123" stroke="None" d="M223 271c5.71-6.52 28.72-6.59 40-4-.24 1.67-2.85.17-3 2 2.32.33 4.06-1.09 6-2 1.66-3.11-4.82-1.03-7-3 2.35-6.78 4.92-10.65 8-17-14.91 8.11-55.07-1.55-44 24Z"/><path fill="#FBA117" stroke="None" d="M422 271c-1.11 7.64-4.18 14.81-7 22 1.73 6.43-6.54 9.72-4 16 4.87-3.25 3.48-11.11 9-14 2.31-7.33 4.5-14.71 7-22 1.73-6.58 2.6-13.36 4-20-1.75.15-1.73 2.44-3 3v-9c-2.62 7.31-2.22 16.96-6 24Z"/><path fill="#FDB401" stroke="None" d="M137 249c-6.58-.54-10.38 6.23-16 8-1.11 3.21 3.23 4.12 3 7-15.06-5-22.99 16.48-36 22 3.64 3.31-2.69 13.69 5 20 15.42-17.59 44.95-30.9 44-57Z"/><path fill="#F40934" stroke="None" d="M209 296c2.03-.96 3.75-1.17 5-3-2.88-12.14 6.04-35.17-5-40v43Z"/><path fill="#96312D" fill-opacity=".91" stroke="None" d="M427 273c-2.5 7.29-4.69 14.67-7 22-2.17 4.64-4.06 9.28-6 14-.13.8-1.09 1.11-1 2 6.6-6.85 8.32-20.85 15-25 4.01-10.16 6.05-21.91 8-33-6.13 3.82-4.26 14.53-9 20Z"/><path fill="#F8A002" stroke="None" d="M393 265c-3.11 10-7 19.67-12 29 9.55-5.99 5.33-27.25 20-23 5.06 6.37 2.41 16.74 1 25 6.61-12.07 5.33-30.88-2-42-5.46.7-3.04 8.47-7 11Z"/><path fill="#EC4D01" stroke="None" d="M415 293c2.82-7.19 5.89-14.36 7-22-1.35-4.54 3.15-9.42 1-13-3.09 8.27-4.24 18.38-10 25-62.19 178.79-346.28 165.32-391-18-2.33-1.74-3.63-5.12-4-8 27.43 191.46 329.12 217.67 397 36Z"/><path fill="#FD5022" stroke="None" d="M223 271h23c4.96.46 9.29-1.59 14-2 .15-1.83 2.76-.33 3-2-11.28-2.59-34.29-2.52-40 4Z"/><path fill="#FC8F04" stroke="None" d="M381 294c-2.45 3.1-3.52 6.89-6 10-1.15 6.72-6.53 10.02-7 17-5.22 2.31-13.83 11.22-14 17-13.82 9.49-32.08 21.59-42 33-6.43-3.19-10.56 4.38-17 4-19.71 6.78-39.79 13.25-61 15-7.26 1.64-17.81 1.68-25 0-38-1.73-72.98-17.3-103-40-9.63-7.56-18.76-15.63-25-26-10.8-14.81-21.89-29.7-28-47-2.26-.43-1.78-3.51-4-4-8.26 84.46 92.28 133.82 164 136 78.98 4.77 155.83-42.04 189-113 1.41-8.26 4.06-18.63-1-25-14.67-4.25-10.45 17.01-20 23Z"/><path fill="#FEF566" stroke="None" d="M79 284c-4.21 7.44 5.99 2.67 9-1 3.31-2.44 6.46-5.7 9-9-6.87 1.52-11.94 6.86-18 10Z"/><path fill="#FDC103" stroke="None" d="M287 295c-4.71.66-8.91 2.9-14 2-7.77 2.63-17.86-.5-26 2 2.03 11.05 3.06 23.23 8 33-.41-7.71-5.42-16.03-4-23 8.3 15.12 4.58 48.98 21.78 50.78 17.28-6.35 33.09-15.64 48.22-25.78-3.85-9-12.81-15.73-16-25 8.26 5.76 12.29 16.72 20 22 7.85-9.74 18.83-17.42 26-28-1.67.44-2.34 2.46-4 3-6.64-12.8-20.63-19.1-27-32-11.15 5.93-20.18 17.4-33 21m0 16c-4.68-1.98-6.18-8.43-8-13 4.36 2.07 6.23 8.51 8 13m-3 33c-8.56-2.53 1.02-9.46 0 0Z"/><path fill="#FA835D" stroke="None" d="M23 299c1.9 3.14 4.6 6.55 6 10 5.75 7.33 9.04 17.35 16 24-2.46-8.02-12.48-14.43-11-23-9.87-5.56-9.41-20.28-17-28 1.76 5.76 3.27 11.57 6 17Z"/><path fill="#882A40" fill-opacity=".89" stroke="None" d="M413 311c-1.37 2.69-2.65 5.31-4 8 2.25 3.08 4.07-1.71 5 2 6.29-10.63 10.88-22.94 14-35-6.68 4.15-8.4 18.15-15 25Z"/><path fill="#F88312" stroke="None" d="M153 297c1.11 18.74 24.12 23.84 39 18 5.98-3.07 10.33-9.76 10-17-4.71 14.22-23.72 17.75-36 11-7.91-3.59-11.01-13.74-13-21v9Z"/><path fill="#F02A64" stroke="None" d="M209 296c1.58 11.78-9.03 20.21-18 25-2.83 5.91 2.65 10.54-1 16 1.78.25 5.36-1.03 5 2 9.78-2.74 19.33-11.05 19-22 0 .04-1 0-1 0-.17 6.15-4.19 12.57-10 15-1.57 4.26-6.5 2.75-10 3 4.79-11 10.15-25.81 21-31v-11c-1.25 1.83-2.97 2.04-5 3Z"/><path fill="#7C204D" fill-opacity=".92" stroke="None" d="M414 321c-.93-3.71-2.75 1.08-5-2-.17.43 0 1 0 1-2.19 3.2-2.68 7.8-6 10-71.15 137.02-293.13 136.07-366 0-4.21-8.19-8.52-16.44-12-25-3.9-1.99-3.19-9.79-9-9 50.37 174.74 326.41 191.73 398 25Z"/><path fill="#FA5A02" stroke="None" d="M158 338c.57.94 1.15 1.82 1 3 1.79 9.19 9.34 17.92 18 21 7.21 1.87 14.61 2.92 22 4 36.47 2.57 31.54-41.97 31-67-1.41-.85-1.72-2.85-4-2 16.62 42.16-45.58 85.76-68 41Z"/><path fill="#FDA203" stroke="None" d="M230 299c.54 25.03 5.47 69.57-31 67 20.62 2.1 43.91 1.93 64-3-2.4-10.37-5.1-20.73-8-31-4.94-9.77-5.97-21.95-8-33 8.14-2.5 18.23.63 26-2-14.93-1.53-28.29 2.73-43 2Z"/><path fill="#FEE932" stroke="None" d="M287 311c-1.77-4.49-3.64-10.93-8-13 1.82 4.57 3.32 11.02 8 13Z"/><path fill="#EA7697" stroke="None" d="M25 305c3.48 8.56 7.79 16.81 12 25 4.9 1.84 6.26 7.59 10 11 2.41 1.11 3.62 3.96 6 5v-1c-9.98-10.56-17.96-23.04-24-36-1.4-3.45-4.1-6.86-6-10 .41 2.1 1.03 4.09 2 6Z"/><path fill="#F8B21E" stroke="None" d="M121 325c6.1-6.05 9.43-16.34 18-20 .72 7.88 9.23 11.74 10 19 .94-.57 1.82-1.15 3-1-.47-2.52 1.03-6.23-1-8-.39 1.87.87 4.86-1 6-4-6.75-9.68-13.08-11-21-6.67 7.97-13.56 15.75-18 25Z"/><path fill="#F03EA0" stroke="None" d="M203 332c-1.67 1.42-3.96.89-6 1 1.95-6.46 14.98-34.47 16-16 0 0 1 .04 1 0v-13c-10.85 5.19-16.21 20-21 31 3.5-.25 8.43 1.26 10-3Z"/><path fill="#EFA226" stroke="None" d="M363 321c-2.03 2.73-4.43 5.04-6 8-4.85 5.66-10.37 11.22-16 16-13.94 12.36-30.45 20.81-46 30 6.44.38 10.57-7.19 17-4 9.92-11.41 28.18-23.51 42-33 .17-5.78 8.78-14.69 14-17 .47-6.98 5.85-10.28 7-17-4.55 5.02-6.66 12.49-12 17Z"/><path fill="#FD9C03" stroke="None" d="M121 325c-1.72 2.26-4.65 5.07-2 8 7.47 5.42 15.73 9.07 23 15h4c.13-5.75 5.45-9.9 5-16 4.87-.35 5.02 6.6 8 9 .15-1.18-.43-2.06-1-3 0 0 .16-.56 0-1-2.89-4.29-4.51-9.47-6-14-1.18-.15-2.06.43-3 1-.77-7.26-9.28-11.12-10-19-8.57 3.66-11.9 13.95-18 20Z"/><path fill="#F7746D" stroke="None" d="M53 345c-1.7-4.31-6.12-6.83-8-11 0 0 .09-.52 0-1-6.96-6.65-10.25-16.67-16-24 6.04 12.96 14.02 25.44 24 36Z"/><path fill="#DD63D0" stroke="None" d="M203 332c5.81-2.43 9.83-8.85 10-15-1.02-18.47-14.05 9.54-16 16 2.04-.11 4.33.42 6-1m9-17c.2 6.07-3.29 14.23-10 15 3.11-4.94 2.77-13.96 10-15Z"/><path fill="#F28171" stroke="None" d="M399 331c4.72-2.45 5.3-8.59 10-11 0 0-.17-.57 0-1 1.35-2.69 2.63-5.31 4-8-.09-.89.87-1.2 1-2-5.02 6.93-10.73 14.5-15 22Z"/><path fill="#BF88F3" stroke="None" d="M212 315c-7.23 1.04-6.89 10.06-10 15 6.71-.77 10.2-8.93 10-15Z"/><path fill="#FEF8A8" stroke="None" d="M173 379c-29.35-6.98-56.5-24.06-78-46h-4c.22 3.55 4.64 4.89 6 8 2.07 3.94 7.08 4.92 9 9 30.02 22.7 65 38.27 103 40h25c21.21-1.75 41.29-8.22 61-15 15.55-9.19 32.06-17.64 46-30 4.85-5.66 10.37-11.22 16-16 1.57-2.96 3.97-5.27 6-8 .58-1.71 2.06-3.11 2-5-44.76 55.11-122.11 83.38-192 63Z"/><path fill="#EF3669" stroke="None" d="M159 323c9.04-2.51 10.88 11.61 19 14-1.33 1.47-5.74 1.71-7 0-.5-.03-1 0-1 0 .04 4.02 5.33 3.2 8 4-.68-2.34 2.87-1.86 3-4-6.96-1.81-11-7.85-11-15-3.48-2.31-7.79-2.25-11-5v6Z"/><path fill="#DF6F95" stroke="None" d="M399 331s.22.64 0 1c-2.49 4.18-6.01 8.13-10 11 0 0 .16.56 0 1-.3 1.25-1.83 1.71-2 3 3.73-2.72 5.73-7.68 10-10 2.19-2.23 3.14-5.55 6-7 3.32-2.2 3.81-6.8 6-10-4.7 2.41-5.28 8.55-10 11Z"/><path fill="#FB2236" stroke="None" d="M170 322c0 7.15 4.04 13.19 11 15-.13 2.14-3.68 1.66-3 4 5.88.23 11.76.19 17-2 .36-3.03-3.22-1.75-5-2 3.65-5.46-1.83-10.09 1-16-6.97.52-13.79 1.47-21 1Z"/><path fill="#F8C743" stroke="None" d="M95 333c21.5 21.94 48.65 39.02 78 46 4.08.17 7.74 1.61 12 1-37.28-7.73-71.79-28.76-98-58 2.23 4.06 4.94 7.85 8 11Z"/><path fill="#F04D9C" stroke="None" d="M159 323c-.04 1.54.89 3.16 2 4 3.58-4.33 9.58 6.86 14 9-.53 1.6-2.75.72-4 1 1.26 1.71 5.67 1.47 7 0-8.12-2.39-9.96-16.51-19-14Z"/><path fill="#EEB62E" stroke="None" d="M106 350c-1.92-4.08-6.93-5.06-9-9-6.55-4.48-10.2-11.99-16-17 6.24 10.37 15.37 18.44 25 26Z"/><path fill="#E674CF" stroke="None" d="M161 327c-.09 4.79 4.52 9.2 9 10 0 0 .5-.03 1 0 1.25-.28 3.47.6 4-1-4.42-2.14-10.42-13.33-14-9Z"/><path fill="#F8C953" stroke="None" d="M341 345c5.63-4.78 11.15-10.34 16-16-5.63 4.78-11.15 10.34-16 16Z"/><path fill="#CD65BC" stroke="None" d="M403 330c-2.86 1.45-3.81 4.77-6 7-77.87 120.11-271.87 125.09-350 4-3.74-3.41-5.1-9.16-10-11 72.87 136.07 294.85 137.02 366 0Z"/><path fill="#FCB105" stroke="None" d="M142 348c10.79 5.77 22.44 11.88 35 14-8.66-3.08-16.21-11.81-18-21-2.98-2.4-3.13-9.35-8-9 .45 6.1-4.87 10.25-5 16h-4Z"/><path fill="#F17B6D" stroke="None" d="M389 343c3.99-2.87 7.51-6.82 10-11-3.99 2.87-7.51 6.82-10 11Z"/><path fill="#ED5D40" stroke="None" d="M53 345v2c15.92 15.34 31.34 31.17 50 42-20.82-15.55-41.66-34.07-58-55 1.88 4.17 6.3 6.69 8 11Z"/><path fill="#D44B91" stroke="None" d="M387 347c-6.37 10.22-17.62 17.21-26 26 0 0-.68-.24-1 0-84.27 86.7-236.71 66.38-307-26v-1c-2.38-1.04-3.59-3.89-6-5 78.13 121.09 272.13 116.11 350-4-4.27 2.32-6.27 7.28-10 10Z"/><path fill="#FFE930" stroke="None" d="M284 344c1.02-9.46-8.56-2.53 0 0Z"/><path fill="#E36462" stroke="None" d="M361 373c8.38-8.79 19.63-15.78 26-26 .17-1.29 1.7-1.75 2-3-9.12 9.44-18.88 19.17-28 29Z"/><path fill="#DD3E66" stroke="None" d="M360 373c-3.11 1.78-5.51 5.16-9 6-15.5 13.83-33.7 24.2-53 31-54.82 25.54-126.65 21.52-178-10-3.46-2.08-7.48-3.9-10-7-2.82-.49-4.14-3.87-7-4-18.66-10.83-34.08-26.66-50-42 70.29 92.38 222.73 112.7 307 26Z"/><path fill="#DE3D20" stroke="None" d="M110 393c2.52 3.1 6.54 4.92 10 7 53.34 28.38 121.1 32.23 178 10 19.3-6.8 37.5-17.17 53-31-66.88 52.73-167.72 56.89-241 14Z"/><path fill="#E78B2B" stroke="None" d="M233 382h-27c7.85 1.68 19.08 1.65 27 0Z"/><path fill="#E6AD3F" stroke="None" d="M234 390h-25c7.19 1.68 17.74 1.64 25 0Z"/><path fill="#E03343" stroke="None" d="M298 410c-56.9 22.23-124.66 18.38-178-10 51.35 31.52 123.18 35.54 178 10Z"/></svg>