<svg height="256" preserveAspectRatio="xMidYMid" viewBox="0 0 256 256" width="256" xmlns="http://www.w3.org/2000/svg" xmlns:xlink="http://www.w3.org/1999/xlink"><linearGradient id="a" gradientUnits="userSpaceOnUse" x1="128" x2="128" y1="172" y2="32"><stop offset="0" stop-color="#fc9502"/><stop offset="1" stop-color="#fcbe02"/></linearGradient><g fill-rule="evenodd"><path d="m63 224c26.509 0 48-21.49 48-48v-22h34v22c0 26.51 22 48 48 48z" fill="#fcc402"/><path d="m193 256h-130c-8.837 0-16-7.164-16-16 0-8.837 7.163-16 16-16h130c8.836 0 16 7.163 16 16 0 8.836-7.164 16-16 16z" fill="#fce202"/><path d="m248 62h-12c-18.778 0-35 15.222-35 34h-6v-34c2.78-13.693 14.486-24 29-24h24c4.418 0 8 3.582 8 8v8c0 4.418-3.582 8-8 8zm-228 0h-12c-4.418 0-8-3.582-8-8v-8c0-4.418 3.582-8 8-8h24c14.513 0 26.22 10.307 29 24v34h-6c0-18.778-16.222-34-35-34z" fill="#fce202"/><path d="m54 32h148v66c0 40.869-33.131 74-74 74s-74-33.131-74-74z" fill="url(#a)"/><path d="m52 0h152c4.418 0 8 3.582 8 8v8c0 4.418-3.582 8-8 8h-152c-4.418 0-8-3.582-8-8v-8c0-4.418 3.582-8 8-8z" fill="#fcc402"/><path d="m162.856 90.349c-5.67 5.904-12.992 13.875-12.992 13.875s1.257 9.931 2.24 17.919c1.018 8.265-3.568 7.51-8.553 5.264-7.182-3.236-15.551-7.295-15.551-7.295s-8.369 4.059-15.551 7.295c-4.985 2.246-9.572 3.001-8.554-5.264.984-7.988 2.241-17.919 2.241-17.919s-7.322-7.971-12.992-13.875c-2.872-2.99-3.642-7.065 2.495-8.214 8.065-1.511 18.848-3.622 18.848-3.622s4.636-10.552 8.774-17.728c2.125-3.686 7.353-3.686 9.478 0 4.138 7.176 8.774 17.728 8.774 17.728s10.783 2.111 18.848 3.622c6.136 1.149 5.367 5.224 2.495 8.214z" fill="#fff"/></g></svg>